<svg width="32" height="32" viewBox="0 0 32 32" fill="none" xmlns="http://www.w3.org/2000/svg">
<rect width="32" height="32" rx="8" fill="#EF2FA2"/>
<path d="M11.5625 19.0156C11.7643 18.9115 11.9238 18.7487 12.041 18.5273C12.1452 18.3125 12.1875 18.0879 12.168 17.8535C12.1549 17.6191 12.0866 17.4076 11.9629 17.2188C12.0736 17.694 12.0443 18.1009 11.875 18.4395C11.7839 18.6217 11.6536 18.7747 11.4844 18.8984C11.3216 19.0156 11.1263 19.0938 10.8984 19.1328C11.1263 19.1719 11.3477 19.1328 11.5625 19.0156ZM10.0977 17.375C10.0781 17.5638 10.1237 17.7526 10.2344 17.9414C10.3451 18.1302 10.485 18.2637 10.6543 18.3418C10.8301 18.4199 10.9863 18.4199 11.123 18.3418C11.2598 18.2637 11.3379 18.1302 11.3574 17.9414C11.377 17.7526 11.3314 17.5638 11.2207 17.375C11.1165 17.1862 10.9766 17.0527 10.8008 16.9746C10.625 16.8965 10.4688 16.8965 10.332 16.9746C10.1953 17.0527 10.1172 17.1862 10.0977 17.375ZM9.80469 13.7129C9.67448 13.7845 9.52799 13.8398 9.36523 13.8789C9.52148 13.918 9.6875 13.9049 9.86328 13.8398C10.0195 13.7812 10.1595 13.6901 10.2832 13.5664C10.5501 13.293 10.6641 12.9902 10.625 12.6582C10.5664 12.8145 10.5013 12.9544 10.4297 13.0781C10.3385 13.2214 10.2474 13.3418 10.1562 13.4395C10.0586 13.5371 9.94141 13.6283 9.80469 13.7129ZM9.44336 12.1992C9.33268 12.2513 9.24154 12.3424 9.16992 12.4727C9.09831 12.5964 9.06901 12.7201 9.08203 12.8438C9.08854 12.9674 9.13737 13.0553 9.22852 13.1074C9.31315 13.1595 9.41406 13.1595 9.53125 13.1074C9.64193 13.0553 9.73307 12.9642 9.80469 12.834C9.8763 12.7103 9.90885 12.5866 9.90234 12.4629C9.88932 12.3392 9.83724 12.2513 9.74609 12.1992C9.66146 12.1471 9.56055 12.1471 9.44336 12.1992ZM7.03125 11.3301C7.19401 11.0892 7.35352 10.8906 7.50977 10.7344C7.67904 10.5521 7.86784 10.3893 8.07617 10.2461C8.49284 9.95964 8.97135 9.79362 9.51172 9.74805C9.26432 9.73503 9.00391 9.75781 8.73047 9.81641C8.5026 9.875 8.26172 9.97917 8.00781 10.1289C7.59115 10.3698 7.21354 10.7344 6.875 11.2227C6.59505 11.6523 6.3737 12.1243 6.21094 12.6387C6.04818 13.153 5.94076 13.6608 5.88867 14.1621C6.0319 13.6022 6.1849 13.1107 6.34766 12.6875C6.54948 12.1536 6.77734 11.7012 7.03125 11.3301ZM11.6406 14.1328C11.569 14.3021 11.5918 14.4095 11.709 14.4551C12.8027 14.8913 13.6458 15.5749 14.2383 16.5059C14.7917 17.3717 15.0358 18.293 14.9707 19.2695C14.8991 20.2656 14.5247 21.0957 13.8477 21.7598C13.099 22.4954 12.0964 22.9056 10.8398 22.9902C9.51823 23.0749 8.38867 22.7591 7.45117 22.043C6.60482 21.3984 5.9668 20.474 5.53711 19.2695C5.13997 18.1628 4.96419 16.9486 5.00977 15.627C5.04883 14.3314 5.28971 13.1335 5.73242 12.0332C6.1556 10.972 6.74154 10.181 7.49023 9.66016C8.13477 9.21094 8.84115 8.99609 9.60938 9.01562C10.306 9.03516 10.9212 9.24023 11.4551 9.63086C11.9889 10.015 12.3014 10.4805 12.3926 11.0273C12.4772 11.5221 12.4674 12.0007 12.3633 12.4629C12.2917 12.7884 12.1647 13.127 11.9824 13.4785C11.9564 13.5436 11.9238 13.612 11.8848 13.6836L11.8359 13.7715L11.7871 13.8496C11.7155 13.9798 11.6667 14.0742 11.6406 14.1328ZM23.1641 15.1582C23.2747 14.8913 23.4505 14.6829 23.6914 14.5332C23.8932 14.3965 24.1569 14.2988 24.4824 14.2402C24.1764 14.1361 23.8802 14.1784 23.5938 14.3672C23.4505 14.4648 23.3398 14.5788 23.2617 14.709C23.1771 14.8587 23.1445 15.0085 23.1641 15.1582ZM23.3398 18.1562C23.4766 18.0651 23.5807 17.9609 23.6523 17.8438C23.737 17.707 23.776 17.5703 23.7695 17.4336C23.6523 17.6549 23.4766 17.8438 23.2422 18C23.138 18.0651 23.0241 18.1204 22.9004 18.166C22.8027 18.2051 22.6725 18.2409 22.5098 18.2734C22.7897 18.3711 23.0664 18.332 23.3398 18.1562ZM18.7402 11.1836C19.1699 10.819 19.6615 10.513 20.2148 10.2656C20.4688 10.1549 20.7422 10.0605 21.0352 9.98242C21.276 9.91081 21.5658 9.84896 21.9043 9.79688C21.3118 9.80339 20.7292 9.91732 20.1562 10.1387C19.6029 10.347 19.0885 10.6497 18.6133 11.0469C18.3854 11.2422 18.1771 11.457 17.9883 11.6914C17.7539 11.9909 17.5879 12.2383 17.4902 12.4336C17.2103 12.9349 17.015 13.4948 16.9043 14.1133L16.9727 13.9082L17.041 13.6934C17.0996 13.5371 17.1549 13.4004 17.207 13.2832C17.3242 13.0098 17.4609 12.7526 17.6172 12.5117C17.9297 12.0039 18.304 11.5612 18.7402 11.1836ZM24.9902 13.5664C25.4329 13.6836 25.8431 13.9277 26.2207 14.2988C26.735 14.8001 27.0768 15.5358 27.2461 16.5059C27.4023 17.3783 27.3926 18.2441 27.2168 19.1035C26.9629 20.3991 26.4095 21.3789 25.5566 22.043C24.6973 22.707 23.5807 23.026 22.207 23C20.5924 22.9674 19.222 22.4206 18.0957 21.3594C16.9303 20.2591 16.2402 18.7878 16.0254 16.9453C15.8171 15.1615 16.0742 13.6022 16.7969 12.2676C17.4805 11.0176 18.4831 10.1094 19.8047 9.54297C20.9635 9.04818 22.1094 8.90169 23.2422 9.10352C23.763 9.19466 24.1829 9.35742 24.502 9.5918C24.834 9.8457 25.0098 10.1517 25.0293 10.5098C25.0553 10.9525 24.9089 11.3398 24.5898 11.6719C24.2513 12.0234 23.75 12.2806 23.0859 12.4434C22.5065 12.5931 22.0443 12.8991 21.6992 13.3613C21.3672 13.804 21.1849 14.3346 21.1523 14.9531C21.1068 15.8255 21.3216 16.5319 21.7969 17.0723C21.9922 17.2936 22.1973 17.4368 22.4121 17.502C22.627 17.5605 22.806 17.5247 22.9492 17.3945C23.0404 17.3099 23.0632 17.1992 23.0176 17.0625C22.998 17.0039 22.9622 16.9323 22.9102 16.8477L22.8418 16.7207L22.7637 16.5938C22.627 16.3529 22.5326 16.1348 22.4805 15.9395C22.3958 15.653 22.373 15.3568 22.4121 15.0508C22.4642 14.6992 22.6172 14.3867 22.8711 14.1133C23.125 13.8464 23.4342 13.6641 23.7988 13.5664C24.1895 13.4557 24.5866 13.4557 24.9902 13.5664Z" fill="white"/>
</svg>
