<svg viewBox="0 0 300 1035" fill="none" xmlns="http://www.w3.org/2000/svg"><path d="M5.07 261.54c2.8-.85 5.77.71 6.63 3.5a5.31 5.31 0 0 1-10.14 3.09 5.26 5.26 0 0 1 3.51-6.59Z" fill="#E7D5C9"/><ellipse cx="5.272" cy="5.302" rx="5.272" ry="5.302" transform="matrix(-.29498 -.9555 .95663 -.2913 63.11 1034.16)" fill="#FECFEF"/><ellipse cx="12.916" cy="12.989" rx="12.916" ry="12.989" transform="matrix(-.29498 -.9555 .95663 -.2913 28.62 1028.25)" fill="#D49ECF"/><path d="M26.8 239.16a3.95 3.95 0 1 1 2.33 7.56 3.95 3.95 0 1 1-2.33-7.56Z" fill="#FECFEF"/><circle cx="19.5" cy="769.5" r="7.5" fill="#ACD9F0"/><path d="M291.52 799.92a5.26 5.26 0 1 1 3.11 10.07 5.26 5.26 0 1 1-3.11-10.07Z" fill="#E7D5C9"/><circle cx="256" cy="536" r="20" fill="#FECFEF"/><circle cx="271" cy="550" r="10" fill="#F1B8B7"/><circle cx="43" cy="5" r="5" fill="#F1B8B7"/><path d="M33 497a15 15 0 1 1-30 0 15 15 0 0 1 30 0Z" fill="#F4D1F1"/><ellipse cx="12.916" cy="12.989" rx="12.916" ry="12.989" transform="matrix(-.29498 -.9555 .95663 -.2913 237.62 272.25)" fill="#D49ECF"/><path d="M270.28 278.29a3.95 3.95 0 1 1 2.33 7.56 3.95 3.95 0 1 1-2.33-7.56Z" fill="#ACD9F0"/><circle cx="20" cy="25" r="15" fill="#EF74C3"/><circle cx="280.5" cy="37.5" r="7.5" fill="#FECFEF"/><ellipse cx="5.272" cy="5.302" rx="5.272" ry="5.302" transform="matrix(-.29498 -.9555 .95663 -.2913 284.225 274.039)" fill="#E7D5C9"/><circle cx="255" cy="997" r="15" fill="#F4D1F1"/></svg>