<svg viewBox="0 0 48 47" fill="none" xmlns="http://www.w3.org/2000/svg"><path d="M23.9 4.53c6.2 0 6.94.02 9.4.13 2.53.12 5.15.7 7 2.54 1.86 1.86 2.42 4.45 2.54 6.99.1 2.45.13 3.19.13 9.4 0 6.2-.02 6.93-.13 9.38-.12 2.52-.7 5.16-2.55 6.99-1.86 1.86-4.45 2.42-7 2.54-2.45.11-3.18.13-9.4.13-6.21 0-6.95-.02-9.4-.13-2.5-.12-5.18-.72-7-2.54-1.86-1.85-2.43-4.46-2.54-6.99a152 152 0 0 1-.14-9.39c0-6.2.02-6.94.14-9.39.11-2.51.7-5.16 2.54-6.99 1.86-1.86 4.46-2.42 7-2.54 2.45-.11 3.19-.13 9.4-.13Zm0-4.19c-6.33 0-7.12.03-9.6.14-3.6.16-7.18 1.16-9.78 3.76-2.6 2.6-3.6 6.17-3.76 9.76a165.6 165.6 0 0 0-.14 9.58c0 6.31.02 7.1.14 9.58.16 3.6 1.17 7.17 3.76 9.76 2.61 2.6 6.18 3.6 9.78 3.76 2.48.12 3.27.14 9.6.14 6.31 0 7.1-.02 9.59-.14 3.6-.16 7.17-1.16 9.77-3.76 2.61-2.6 3.6-6.17 3.77-9.76.1-2.47.14-3.27.14-9.58 0-6.31-.03-7.1-.14-9.58-.17-3.6-1.17-7.16-3.77-9.76-2.6-2.6-6.19-3.6-9.77-3.76a166.3 166.3 0 0 0-9.6-.14Z" fill="#EF2FA2"/><path d="M23.9 11.65a11.94 11.94 0 1 0-.02 23.88 11.94 11.94 0 0 0 .01-23.88Zm0 19.68a7.75 7.75 0 1 1-.02-15.5 7.75 7.75 0 0 1 .01 15.5Zm12.42-17.37a2.8 2.8 0 1 0 0-5.58 2.8 2.8 0 0 0 0 5.58Z" fill="#EF2FA2"/></svg>