<svg viewBox="0 0 48 47" fill="none" xmlns="http://www.w3.org/2000/svg"><path fill-rule="evenodd" clip-rule="evenodd" d="M24.21.34a23.26 23.26 0 0 0-23.27 23.24 23.26 23.26 0 0 0 23.27 23.24 23.26 23.26 0 0 0 23.28-23.24 23.26 23.26 0 0 0-23.28-23.24Zm10.79 15.8c-.35 3.68-1.87 12.6-2.64 16.71-.32 1.75-.97 2.33-1.59 2.39-1.35.12-2.37-.9-3.68-1.75-2.05-1.34-3.21-2.18-5.2-3.49-2.3-1.5-.8-2.34.5-3.7.35-.35 6.3-5.76 6.42-6.25.01-.07.03-.3-.11-.41-.14-.12-.34-.08-.48-.05-.2.05-3.48 2.2-9.82 6.48-.93.63-1.77.94-2.53.93-.83-.02-2.42-.47-3.61-.86-1.46-.47-2.62-.72-2.52-1.52.05-.42.63-.85 1.73-1.29 6.79-2.95 11.31-4.9 13.57-5.84 6.47-2.68 7.81-3.15 8.69-3.16 1.1-.02 1.36.89 1.27 1.82Z" fill="#EF2FA2"/></svg>