<svg viewBox="0 0 48 47" fill="none" xmlns="http://www.w3.org/2000/svg"><path fill-rule="evenodd" clip-rule="evenodd" d="M40.34 7.1a23.1 23.1 0 0 0-16.4-6.76 23.14 23.14 0 0 0-23.18 23.03c0 4.06 1.07 8.02 3.1 11.52l-3.3 11.93 12.3-3.2a23.27 23.27 0 0 0 11.07 2.8 23.14 23.14 0 0 0 23.19-23.03c0-6.15-2.4-11.94-6.78-16.3Zm-16.4 35.43a19.3 19.3 0 0 1-9.81-2.67l-.7-.41-7.3 1.9 1.95-7.07-.46-.72a19 19 0 0 1-2.94-10.19 19.23 19.23 0 0 1 19.27-19.14 19.19 19.19 0 0 1 19.25 19.16 19.23 19.23 0 0 1-19.26 19.14Zm10.57-14.34a94.7 94.7 0 0 0-3.96-1.87c-.53-.19-.92-.29-1.3.29a34.4 34.4 0 0 1-1.84 2.26c-.34.38-.68.43-1.25.14-.58-.29-2.45-.9-4.66-2.86a17.34 17.34 0 0 1-3.22-3.98c-.34-.58-.04-.9.25-1.18.26-.26.58-.67.87-1 .3-.34.39-.58.58-.97.2-.38.1-.72-.05-1-.14-.3-1.3-3.13-1.78-4.28-.47-1.12-.95-.97-1.3-.99l-1.12-.01c-.38 0-1.01.14-1.54.72-.53.57-2.03 1.97-2.03 4.8s2.08 5.57 2.37 5.95c.29.38 4.08 6.2 9.89 8.7 1.38.58 2.46.94 3.3 1.2a8 8 0 0 0 3.65.23c1.11-.16 3.42-1.4 3.9-2.74.5-1.34.5-2.5.35-2.73-.15-.24-.53-.39-1.11-.68Z" fill="#EF2FA2"/></svg>