<svg width="133" height="19" viewBox="0 0 133 19" fill="none" xmlns="http://www.w3.org/2000/svg">
<path d="M7.875 13.2188C8.11719 13.0938 8.30859 12.8984 8.44922 12.6328C8.57422 12.375 8.625 12.1055 8.60156 11.8242C8.58594 11.543 8.50391 11.2891 8.35547 11.0625C8.48828 11.6328 8.45312 12.1211 8.25 12.5273C8.14062 12.7461 7.98438 12.9297 7.78125 13.0781C7.58594 13.2188 7.35156 13.3125 7.07812 13.3594C7.35156 13.4062 7.61719 13.3594 7.875 13.2188ZM6.11719 11.25C6.09375 11.4766 6.14844 11.7031 6.28125 11.9297C6.41406 12.1562 6.58203 12.3164 6.78516 12.4102C6.99609 12.5039 7.18359 12.5039 7.34766 12.4102C7.51172 12.3164 7.60547 12.1562 7.62891 11.9297C7.65234 11.7031 7.59766 11.4766 7.46484 11.25C7.33984 11.0234 7.17188 10.8633 6.96094 10.7695C6.75 10.6758 6.5625 10.6758 6.39844 10.7695C6.23438 10.8633 6.14062 11.0234 6.11719 11.25ZM5.76562 6.85547C5.60938 6.94141 5.43359 7.00781 5.23828 7.05469C5.42578 7.10156 5.625 7.08594 5.83594 7.00781C6.02344 6.9375 6.19141 6.82812 6.33984 6.67969C6.66016 6.35156 6.79688 5.98828 6.75 5.58984C6.67969 5.77734 6.60156 5.94531 6.51562 6.09375C6.40625 6.26562 6.29688 6.41016 6.1875 6.52734C6.07031 6.64453 5.92969 6.75391 5.76562 6.85547ZM5.33203 5.03906C5.19922 5.10156 5.08984 5.21094 5.00391 5.36719C4.91797 5.51562 4.88281 5.66406 4.89844 5.8125C4.90625 5.96094 4.96484 6.06641 5.07422 6.12891C5.17578 6.19141 5.29688 6.19141 5.4375 6.12891C5.57031 6.06641 5.67969 5.95703 5.76562 5.80078C5.85156 5.65234 5.89062 5.50391 5.88281 5.35547C5.86719 5.20703 5.80469 5.10156 5.69531 5.03906C5.59375 4.97656 5.47266 4.97656 5.33203 5.03906ZM2.4375 3.99609C2.63281 3.70703 2.82422 3.46875 3.01172 3.28125C3.21484 3.0625 3.44141 2.86719 3.69141 2.69531C4.19141 2.35156 4.76562 2.15234 5.41406 2.09766C5.11719 2.08203 4.80469 2.10938 4.47656 2.17969C4.20312 2.25 3.91406 2.375 3.60938 2.55469C3.10938 2.84375 2.65625 3.28125 2.25 3.86719C1.91406 4.38281 1.64844 4.94922 1.45312 5.56641C1.25781 6.18359 1.12891 6.79297 1.06641 7.39453C1.23828 6.72266 1.42188 6.13281 1.61719 5.625C1.85938 4.98438 2.13281 4.44141 2.4375 3.99609ZM7.96875 7.35938C7.88281 7.5625 7.91016 7.69141 8.05078 7.74609C9.36328 8.26953 10.375 9.08984 11.0859 10.207C11.75 11.2461 12.043 12.3516 11.9648 13.5234C11.8789 14.7188 11.4297 15.7148 10.6172 16.5117C9.71875 17.3945 8.51562 17.8867 7.00781 17.9883C5.42188 18.0898 4.06641 17.7109 2.94141 16.8516C1.92578 16.0781 1.16016 14.9688 0.644531 13.5234C0.167969 12.1953 -0.0429687 10.7383 0.0117188 9.15234C0.0585938 7.59766 0.347656 6.16016 0.878906 4.83984C1.38672 3.56641 2.08984 2.61719 2.98828 1.99219C3.76172 1.45312 4.60938 1.19531 5.53125 1.21875C6.36719 1.24219 7.10547 1.48828 7.74609 1.95703C8.38672 2.41797 8.76172 2.97656 8.87109 3.63281C8.97266 4.22656 8.96094 4.80078 8.83594 5.35547C8.75 5.74609 8.59766 6.15234 8.37891 6.57422C8.34766 6.65234 8.30859 6.73438 8.26172 6.82031L8.20312 6.92578L8.14453 7.01953C8.05859 7.17578 8 7.28906 7.96875 7.35938ZM22.2539 3.19922C22.332 3.00391 22.418 2.86328 22.5117 2.77734C22.5664 2.73047 22.6406 2.69141 22.7344 2.66016L22.8633 2.63672L22.9922 2.61328C22.7656 2.58203 22.5859 2.60547 22.4531 2.68359C22.3203 2.76953 22.2031 2.91797 22.1016 3.12891C21.9766 3.37109 21.8789 3.71875 21.8086 4.17188C21.7227 4.86719 21.7227 5.57812 21.8086 6.30469L21.8672 5.77734L21.9258 5.25C21.9648 4.79688 22 4.44922 22.0312 4.20703C22.1016 3.76953 22.1758 3.43359 22.2539 3.19922ZM20.4961 12.1758C20.6914 12.1289 20.8789 12.0391 21.0586 11.9062C21.3945 11.6406 21.5859 11.2969 21.6328 10.875L21.4688 11.1211C21.4141 11.207 21.3594 11.2812 21.3047 11.3438C21.1797 11.5 21.0508 11.6289 20.918 11.7305C20.7773 11.8398 20.6211 11.9297 20.4492 12C20.3164 12.0625 20.1328 12.1211 19.8984 12.1758C20.0938 12.2227 20.293 12.2227 20.4961 12.1758ZM15.9023 2.92969C16.0664 2.71094 16.2305 2.53516 16.3945 2.40234C16.6055 2.22266 16.8242 2.12891 17.0508 2.12109C16.832 2.08203 16.5898 2.14453 16.3242 2.30859C16.1445 2.43359 15.957 2.60547 15.7617 2.82422C15.4883 3.15234 15.2305 3.58594 14.9883 4.125C14.793 4.60156 14.6367 5.07812 14.5195 5.55469C14.3945 6.07812 14.3125 6.57422 14.2734 7.04297L14.4727 6.31641C14.5508 6.05078 14.6211 5.8125 14.6836 5.60156C14.8711 5.03906 15.043 4.57812 15.1992 4.21875C15.418 3.71875 15.6523 3.28906 15.9023 2.92969ZM21.2695 3C21.5742 2.13281 22.1602 1.70312 23.0273 1.71094C23.6367 1.71875 24.2109 2.09375 24.75 2.83594C25.2578 3.53125 25.6719 4.47266 25.9922 5.66016C26.7031 8.29297 26.7617 10.8945 26.168 13.4648C25.8555 14.8477 25.1133 15.9531 23.9414 16.7812C22.8477 17.5469 21.5898 17.9531 20.168 18C18.7227 18.0391 17.4258 17.6992 16.2773 16.9805C15.0195 16.1836 14.1602 15.0508 13.6992 13.582C13.3164 12.3867 13.1328 11.0391 13.1484 9.53906C13.1641 8.125 13.3438 6.76562 13.6875 5.46094C14.0469 4.15625 14.5156 3.125 15.0938 2.36719C15.7188 1.54688 16.3945 1.16406 17.1211 1.21875C17.9805 1.28906 18.582 1.69922 18.9258 2.44922C19.3945 3.46484 19.4336 5.13281 19.043 7.45312C18.8633 8.50781 18.8438 9.39453 18.9844 10.1133C19.1328 10.8789 19.4414 11.2656 19.9102 11.2734C20.7227 11.2812 21.0742 10.2812 20.9648 8.27344C20.832 5.73438 20.9336 3.97656 21.2695 3ZM35.6719 13.2188C35.9141 13.0938 36.1055 12.8984 36.2461 12.6328C36.3711 12.375 36.4219 12.1055 36.3984 11.8242C36.3828 11.543 36.3008 11.2891 36.1523 11.0625C36.2852 11.6328 36.25 12.1211 36.0469 12.5273C35.9375 12.7461 35.7812 12.9297 35.5781 13.0781C35.3828 13.2188 35.1484 13.3125 34.875 13.3594C35.1484 13.4062 35.4141 13.3594 35.6719 13.2188ZM33.9141 11.25C33.8906 11.4766 33.9453 11.7031 34.0781 11.9297C34.2109 12.1562 34.3789 12.3164 34.582 12.4102C34.793 12.5039 34.9805 12.5039 35.1445 12.4102C35.3086 12.3164 35.4023 12.1562 35.4258 11.9297C35.4492 11.7031 35.3945 11.4766 35.2617 11.25C35.1367 11.0234 34.9688 10.8633 34.7578 10.7695C34.5469 10.6758 34.3594 10.6758 34.1953 10.7695C34.0312 10.8633 33.9375 11.0234 33.9141 11.25ZM33.5625 6.85547C33.4062 6.94141 33.2305 7.00781 33.0352 7.05469C33.2227 7.10156 33.4219 7.08594 33.6328 7.00781C33.8203 6.9375 33.9883 6.82812 34.1367 6.67969C34.457 6.35156 34.5938 5.98828 34.5469 5.58984C34.4766 5.77734 34.3984 5.94531 34.3125 6.09375C34.2031 6.26562 34.0938 6.41016 33.9844 6.52734C33.8672 6.64453 33.7266 6.75391 33.5625 6.85547ZM33.1289 5.03906C32.9961 5.10156 32.8867 5.21094 32.8008 5.36719C32.7148 5.51562 32.6797 5.66406 32.6953 5.8125C32.7031 5.96094 32.7617 6.06641 32.8711 6.12891C32.9727 6.19141 33.0938 6.19141 33.2344 6.12891C33.3672 6.06641 33.4766 5.95703 33.5625 5.80078C33.6484 5.65234 33.6875 5.50391 33.6797 5.35547C33.6641 5.20703 33.6016 5.10156 33.4922 5.03906C33.3906 4.97656 33.2695 4.97656 33.1289 5.03906ZM30.2344 3.99609C30.4297 3.70703 30.6211 3.46875 30.8086 3.28125C31.0117 3.0625 31.2383 2.86719 31.4883 2.69531C31.9883 2.35156 32.5625 2.15234 33.2109 2.09766C32.9141 2.08203 32.6016 2.10938 32.2734 2.17969C32 2.25 31.7109 2.375 31.4062 2.55469C30.9062 2.84375 30.4531 3.28125 30.0469 3.86719C29.7109 4.38281 29.4453 4.94922 29.25 5.56641C29.0547 6.18359 28.9258 6.79297 28.8633 7.39453C29.0352 6.72266 29.2188 6.13281 29.4141 5.625C29.6562 4.98438 29.9297 4.44141 30.2344 3.99609ZM35.7656 7.35938C35.6797 7.5625 35.707 7.69141 35.8477 7.74609C37.1602 8.26953 38.1719 9.08984 38.8828 10.207C39.5469 11.2461 39.8398 12.3516 39.7617 13.5234C39.6758 14.7188 39.2266 15.7148 38.4141 16.5117C37.5156 17.3945 36.3125 17.8867 34.8047 17.9883C33.2188 18.0898 31.8633 17.7109 30.7383 16.8516C29.7227 16.0781 28.957 14.9688 28.4414 13.5234C27.9648 12.1953 27.7539 10.7383 27.8086 9.15234C27.8555 7.59766 28.1445 6.16016 28.6758 4.83984C29.1836 3.56641 29.8867 2.61719 30.7852 1.99219C31.5586 1.45312 32.4062 1.19531 33.3281 1.21875C34.1641 1.24219 34.9023 1.48828 35.543 1.95703C36.1836 2.41797 36.5586 2.97656 36.668 3.63281C36.7695 4.22656 36.7578 4.80078 36.6328 5.35547C36.5469 5.74609 36.3945 6.15234 36.1758 6.57422C36.1445 6.65234 36.1055 6.73438 36.0586 6.82031L36 6.92578L35.9414 7.01953C35.8555 7.17578 35.7969 7.28906 35.7656 7.35938ZM48.8203 13.2188C49.0625 13.0938 49.2539 12.8984 49.3945 12.6328C49.5195 12.375 49.5703 12.1055 49.5469 11.8242C49.5312 11.543 49.4492 11.2891 49.3008 11.0625C49.4336 11.6328 49.3984 12.1211 49.1953 12.5273C49.0859 12.7461 48.9297 12.9297 48.7266 13.0781C48.5312 13.2188 48.2969 13.3125 48.0234 13.3594C48.2969 13.4062 48.5625 13.3594 48.8203 13.2188ZM47.0625 11.25C47.0391 11.4766 47.0938 11.7031 47.2266 11.9297C47.3594 12.1562 47.5273 12.3164 47.7305 12.4102C47.9414 12.5039 48.1289 12.5039 48.293 12.4102C48.457 12.3164 48.5508 12.1562 48.5742 11.9297C48.5977 11.7031 48.543 11.4766 48.4102 11.25C48.2852 11.0234 48.1172 10.8633 47.9062 10.7695C47.6953 10.6758 47.5078 10.6758 47.3438 10.7695C47.1797 10.8633 47.0859 11.0234 47.0625 11.25ZM46.7109 6.85547C46.5547 6.94141 46.3789 7.00781 46.1836 7.05469C46.3711 7.10156 46.5703 7.08594 46.7812 7.00781C46.9688 6.9375 47.1367 6.82812 47.2852 6.67969C47.6055 6.35156 47.7422 5.98828 47.6953 5.58984C47.625 5.77734 47.5469 5.94531 47.4609 6.09375C47.3516 6.26562 47.2422 6.41016 47.1328 6.52734C47.0156 6.64453 46.875 6.75391 46.7109 6.85547ZM46.2773 5.03906C46.1445 5.10156 46.0352 5.21094 45.9492 5.36719C45.8633 5.51562 45.8281 5.66406 45.8438 5.8125C45.8516 5.96094 45.9102 6.06641 46.0195 6.12891C46.1211 6.19141 46.2422 6.19141 46.3828 6.12891C46.5156 6.06641 46.625 5.95703 46.7109 5.80078C46.7969 5.65234 46.8359 5.50391 46.8281 5.35547C46.8125 5.20703 46.75 5.10156 46.6406 5.03906C46.5391 4.97656 46.418 4.97656 46.2773 5.03906ZM43.3828 3.99609C43.5781 3.70703 43.7695 3.46875 43.957 3.28125C44.1602 3.0625 44.3867 2.86719 44.6367 2.69531C45.1367 2.35156 45.7109 2.15234 46.3594 2.09766C46.0625 2.08203 45.75 2.10938 45.4219 2.17969C45.1484 2.25 44.8594 2.375 44.5547 2.55469C44.0547 2.84375 43.6016 3.28125 43.1953 3.86719C42.8594 4.38281 42.5938 4.94922 42.3984 5.56641C42.2031 6.18359 42.0742 6.79297 42.0117 7.39453C42.1836 6.72266 42.3672 6.13281 42.5625 5.625C42.8047 4.98438 43.0781 4.44141 43.3828 3.99609ZM48.9141 7.35938C48.8281 7.5625 48.8555 7.69141 48.9961 7.74609C50.3086 8.26953 51.3203 9.08984 52.0312 10.207C52.6953 11.2461 52.9883 12.3516 52.9102 13.5234C52.8242 14.7188 52.375 15.7148 51.5625 16.5117C50.6641 17.3945 49.4609 17.8867 47.9531 17.9883C46.3672 18.0898 45.0117 17.7109 43.8867 16.8516C42.8711 16.0781 42.1055 14.9688 41.5898 13.5234C41.1133 12.1953 40.9023 10.7383 40.957 9.15234C41.0039 7.59766 41.293 6.16016 41.8242 4.83984C42.332 3.56641 43.0352 2.61719 43.9336 1.99219C44.707 1.45312 45.5547 1.19531 46.4766 1.21875C47.3125 1.24219 48.0508 1.48828 48.6914 1.95703C49.332 2.41797 49.707 2.97656 49.8164 3.63281C49.918 4.22656 49.9062 4.80078 49.7812 5.35547C49.6953 5.74609 49.543 6.15234 49.3242 6.57422C49.293 6.65234 49.2539 6.73438 49.207 6.82031L49.1484 6.92578L49.0898 7.01953C49.0039 7.17578 48.9453 7.28906 48.9141 7.35938ZM62.168 12.668C62.4102 12.6367 62.6953 12.6133 63.0234 12.5977C63.3672 12.582 63.6523 12.582 63.8789 12.5977C63.418 12.418 62.8398 12.3672 62.1445 12.4453C61.8398 12.4844 61.5547 12.5391 61.2891 12.6094L61.0781 12.668L60.8672 12.7383C60.7031 12.793 60.5664 12.8281 60.457 12.8438C60.5664 12.8672 60.7109 12.8672 60.8906 12.8438L61.3242 12.7852L61.7461 12.7266L62.168 12.668ZM56.5664 3.02344C56.6914 2.80469 56.8047 2.63281 56.9062 2.50781C57.0703 2.29688 57.2305 2.17187 57.3867 2.13281C57.2852 2.13281 57.1836 2.16406 57.082 2.22656C57.0117 2.27344 56.9258 2.33984 56.8242 2.42578C56.6836 2.56641 56.5469 2.73828 56.4141 2.94141C56.2031 3.26172 56.0156 3.64453 55.8516 4.08984C55.5625 4.90234 55.3867 5.73438 55.3242 6.58594L55.5 5.97656L55.6758 5.36719C55.8164 4.90625 55.9453 4.50781 56.0625 4.17188C56.2109 3.75781 56.3789 3.375 56.5664 3.02344ZM59.5898 10.5117C59.6836 11.6055 60.0547 12.0703 60.7031 11.9062C62.2578 11.5234 63.5078 11.4961 64.4531 11.8242C65.4844 12.1758 65.9531 12.8906 65.8594 13.9688C65.8125 14.625 65.4062 15.2773 64.6406 15.9258C63.9219 16.543 63.0273 17.043 61.957 17.4258C60.8398 17.8242 59.7656 18.0156 58.7344 18C57.5938 17.9766 56.668 17.6953 55.957 17.1562C55.1992 16.5859 54.6641 15.4297 54.3516 13.6875C54.0703 12.1016 54.0156 10.332 54.1875 8.37891C54.3594 6.42578 54.7148 4.79297 55.2539 3.48047C55.8398 2.03516 56.5312 1.28906 57.3281 1.24219C58.3906 1.17969 59.0898 1.73047 59.4258 2.89453C59.6602 3.69922 59.7422 4.98047 59.6719 6.73828L59.6484 7.26562L59.625 7.78125C59.6016 8.21875 59.5859 8.55078 59.5781 8.77734C59.5469 9.51953 59.5508 10.0977 59.5898 10.5117ZM75.0469 13.1484L75.2227 13.0898C75.7461 12.9258 76.2109 12.8008 76.6172 12.7148C76.4062 12.6758 76.1602 12.6758 75.8789 12.7148C75.6602 12.7383 75.418 12.793 75.1523 12.8789C75.0586 12.9023 74.9414 12.9453 74.8008 13.0078L74.6367 13.0664L74.4727 13.1367C74.2461 13.2148 74.0117 13.2773 73.7695 13.3242C73.9961 13.3711 74.2461 13.3633 74.5195 13.3008C74.6133 13.2852 74.7344 13.2539 74.8828 13.207L75.0469 13.1484ZM70.6875 2.64844C70.9766 2.48438 71.3008 2.35547 71.6602 2.26172C71.957 2.17578 72.3086 2.11719 72.7148 2.08594C72.3789 2.0625 72.0195 2.08594 71.6367 2.15625C71.2617 2.22656 70.918 2.33984 70.6055 2.49609C70.2852 2.65234 69.9844 2.85938 69.7031 3.11719C69.4609 3.34375 69.2383 3.64063 69.0352 4.00781C68.7148 4.58594 68.4727 5.26953 68.3086 6.05859C68.168 6.73828 68.0938 7.45312 68.0859 8.20312L68.1562 7.66406C68.1875 7.46094 68.2188 7.28516 68.25 7.13672C68.3203 6.76953 68.3984 6.42188 68.4844 6.09375C68.6953 5.28125 68.9453 4.62109 69.2344 4.11328C69.4219 3.77734 69.625 3.5 69.8438 3.28125C70.0703 3.05469 70.3516 2.84375 70.6875 2.64844ZM73.9102 8.48438L73.8281 8.51953L73.6406 8.57812L73.4648 8.63672C73.5742 8.67578 73.7031 8.69141 73.8516 8.68359C73.9062 8.68359 73.9727 8.67578 74.0508 8.66016L74.1445 8.64844L74.2266 8.63672C74.3359 8.62109 74.4531 8.60938 74.5781 8.60156C74.7266 8.60156 74.8516 8.61328 74.9531 8.63672C74.8828 8.53516 74.7656 8.46484 74.6016 8.42578C74.4844 8.39453 74.3477 8.39062 74.1914 8.41406C74.1367 8.42188 74.0742 8.4375 74.0039 8.46094L73.9102 8.48438ZM73.4062 12.3516C73.6875 12.4609 74.0312 12.4375 74.4375 12.2812C75.7656 11.7812 76.8047 11.6758 77.5547 11.9648C78.2656 12.2383 78.6172 12.8242 78.6094 13.7227C78.6016 14.3945 78.2773 15.0664 77.6367 15.7383C77.0195 16.3711 76.2305 16.8945 75.2695 17.3086C74.2852 17.7383 73.3125 17.9688 72.3516 18C71.2969 18.0312 70.4102 17.8125 69.6914 17.3438C68.9492 16.8672 68.3477 15.9492 67.8867 14.5898C67.457 13.3242 67.207 11.8789 67.1367 10.2539C67.0742 8.62109 67.207 7.125 67.5352 5.76562C67.8945 4.28906 68.4336 3.21094 69.1523 2.53125C69.9336 1.79687 70.8789 1.35938 71.9883 1.21875C72.9727 1.10156 73.9531 1.21875 74.9297 1.57031C75.8594 1.91406 76.5625 2.38672 77.0391 2.98828C77.5391 3.62109 77.6523 4.24609 77.3789 4.86328C77.2227 5.22266 76.9453 5.48438 76.5469 5.64844C76.2656 5.76562 75.8633 5.84375 75.3398 5.88281L75.0234 5.90625L74.6953 5.91797C74.4375 5.93359 74.2305 5.95312 74.0742 5.97656C73.6211 6.03125 73.2852 6.14062 73.0664 6.30469C72.918 6.41406 72.8164 6.5625 72.7617 6.75C72.7148 6.92969 72.7188 7.10547 72.7734 7.27734C72.9219 7.68359 73.2539 7.82031 73.7695 7.6875C74.3789 7.53125 74.9023 7.57422 75.3398 7.81641C75.7695 8.05078 76 8.41016 76.0312 8.89453C76.0625 9.41797 75.8945 9.84766 75.5273 10.1836C75.1211 10.5508 74.5 10.7734 73.6641 10.8516C73.3828 10.8828 73.1719 11.0039 73.0312 11.2148C72.9062 11.418 72.875 11.6328 72.9375 11.8594C73.0078 12.1016 73.1641 12.2656 73.4062 12.3516ZM93.1172 8.58984C93.25 8.26953 93.4609 8.01953 93.75 7.83984C93.9922 7.67578 94.3086 7.55859 94.6992 7.48828C94.332 7.36328 93.9766 7.41406 93.6328 7.64062C93.4609 7.75781 93.3281 7.89453 93.2344 8.05078C93.1328 8.23047 93.0938 8.41016 93.1172 8.58984ZM93.3281 12.1875C93.4922 12.0781 93.6172 11.9531 93.7031 11.8125C93.8047 11.6484 93.8516 11.4844 93.8438 11.3203C93.7031 11.5859 93.4922 11.8125 93.2109 12C93.0859 12.0781 92.9492 12.1445 92.8008 12.1992C92.6836 12.2461 92.5273 12.2891 92.332 12.3281C92.668 12.4453 93 12.3984 93.3281 12.1875ZM87.8086 3.82031C88.3242 3.38281 88.9141 3.01562 89.5781 2.71875C89.8828 2.58594 90.2109 2.47266 90.5625 2.37891C90.8516 2.29297 91.1992 2.21875 91.6055 2.15625C90.8945 2.16406 90.1953 2.30078 89.5078 2.56641C88.8438 2.81641 88.2266 3.17969 87.6562 3.65625C87.3828 3.89062 87.1328 4.14844 86.9062 4.42969C86.625 4.78906 86.4258 5.08594 86.3086 5.32031C85.9727 5.92188 85.7383 6.59375 85.6055 7.33594L85.6875 7.08984L85.7695 6.83203C85.8398 6.64453 85.9062 6.48047 85.9688 6.33984C86.1094 6.01172 86.2734 5.70312 86.4609 5.41406C86.8359 4.80469 87.2852 4.27344 87.8086 3.82031ZM95.3086 6.67969C95.8398 6.82031 96.332 7.11328 96.7852 7.55859C97.4023 8.16016 97.8125 9.04297 98.0156 10.207C98.2031 11.2539 98.1914 12.293 97.9805 13.3242C97.6758 14.8789 97.0117 16.0547 95.9883 16.8516C94.957 17.6484 93.6172 18.0312 91.9688 18C90.0312 17.9609 88.3867 17.3047 87.0352 16.0312C85.6367 14.7109 84.8086 12.9453 84.5508 10.7344C84.3008 8.59375 84.6094 6.72266 85.4766 5.12109C86.2969 3.62109 87.5 2.53125 89.0859 1.85156C90.4766 1.25781 91.8516 1.08203 93.2109 1.32422C93.8359 1.43359 94.3398 1.62891 94.7227 1.91016C95.1211 2.21484 95.332 2.58203 95.3555 3.01172C95.3867 3.54297 95.2109 4.00781 94.8281 4.40625C94.4219 4.82812 93.8203 5.13672 93.0234 5.33203C92.3281 5.51172 91.7734 5.87891 91.3594 6.43359C90.9609 6.96484 90.7422 7.60156 90.7031 8.34375C90.6484 9.39062 90.9062 10.2383 91.4766 10.8867C91.7109 11.1523 91.957 11.3242 92.2148 11.4023C92.4727 11.4727 92.6875 11.4297 92.8594 11.2734C92.9688 11.1719 92.9961 11.0391 92.9414 10.875C92.918 10.8047 92.875 10.7188 92.8125 10.6172L92.7305 10.4648L92.6367 10.3125C92.4727 10.0234 92.3594 9.76172 92.2969 9.52734C92.1953 9.18359 92.168 8.82812 92.2148 8.46094C92.2773 8.03906 92.4609 7.66406 92.7656 7.33594C93.0703 7.01562 93.4414 6.79688 93.8789 6.67969C94.3477 6.54688 94.8242 6.54688 95.3086 6.67969ZM108.41 3.19922C108.488 3.00391 108.574 2.86328 108.668 2.77734C108.723 2.73047 108.797 2.69141 108.891 2.66016L109.02 2.63672L109.148 2.61328C108.922 2.58203 108.742 2.60547 108.609 2.68359C108.477 2.76953 108.359 2.91797 108.258 3.12891C108.133 3.37109 108.035 3.71875 107.965 4.17188C107.879 4.86719 107.879 5.57812 107.965 6.30469L108.023 5.77734L108.082 5.25C108.121 4.79688 108.156 4.44922 108.188 4.20703C108.258 3.76953 108.332 3.43359 108.41 3.19922ZM106.652 12.1758C106.848 12.1289 107.035 12.0391 107.215 11.9062C107.551 11.6406 107.742 11.2969 107.789 10.875L107.625 11.1211C107.57 11.207 107.516 11.2812 107.461 11.3438C107.336 11.5 107.207 11.6289 107.074 11.7305C106.934 11.8398 106.777 11.9297 106.605 12C106.473 12.0625 106.289 12.1211 106.055 12.1758C106.25 12.2227 106.449 12.2227 106.652 12.1758ZM102.059 2.92969C102.223 2.71094 102.387 2.53516 102.551 2.40234C102.762 2.22266 102.98 2.12891 103.207 2.12109C102.988 2.08203 102.746 2.14453 102.48 2.30859C102.301 2.43359 102.113 2.60547 101.918 2.82422C101.645 3.15234 101.387 3.58594 101.145 4.125C100.949 4.60156 100.793 5.07812 100.676 5.55469C100.551 6.07812 100.469 6.57422 100.43 7.04297L100.629 6.31641C100.707 6.05078 100.777 5.8125 100.84 5.60156C101.027 5.03906 101.199 4.57812 101.355 4.21875C101.574 3.71875 101.809 3.28906 102.059 2.92969ZM107.426 3C107.73 2.13281 108.316 1.70312 109.184 1.71094C109.793 1.71875 110.367 2.09375 110.906 2.83594C111.414 3.53125 111.828 4.47266 112.148 5.66016C112.859 8.29297 112.918 10.8945 112.324 13.4648C112.012 14.8477 111.27 15.9531 110.098 16.7812C109.004 17.5469 107.746 17.9531 106.324 18C104.879 18.0391 103.582 17.6992 102.434 16.9805C101.176 16.1836 100.316 15.0508 99.8555 13.582C99.4727 12.3867 99.2891 11.0391 99.3047 9.53906C99.3203 8.125 99.5 6.76562 99.8438 5.46094C100.203 4.15625 100.672 3.125 101.25 2.36719C101.875 1.54688 102.551 1.16406 103.277 1.21875C104.137 1.28906 104.738 1.69922 105.082 2.44922C105.551 3.46484 105.59 5.13281 105.199 7.45312C105.02 8.50781 105 9.39453 105.141 10.1133C105.289 10.8789 105.598 11.2656 106.066 11.2734C106.879 11.2812 107.23 10.2812 107.121 8.27344C106.988 5.73438 107.09 3.97656 107.426 3ZM126.504 2.92969C126.699 2.69531 126.887 2.51563 127.066 2.39062C127.27 2.23438 127.512 2.14453 127.793 2.12109C127.535 2.09766 127.273 2.15625 127.008 2.29688C126.812 2.40625 126.602 2.57422 126.375 2.80078C126.102 3.08984 125.77 3.51172 125.379 4.06641L125.156 4.39453L124.922 4.72266C124.75 4.96484 124.586 5.16797 124.43 5.33203C124.008 5.77734 123.559 6.01953 123.082 6.05859C123.332 6.08203 123.598 6.03516 123.879 5.91797C124.105 5.80859 124.328 5.65625 124.547 5.46094C124.727 5.29688 124.91 5.09375 125.098 4.85156L125.332 4.52344L125.566 4.19531C125.934 3.65625 126.246 3.23438 126.504 2.92969ZM116.812 4.78125C117.07 4.25 117.34 3.80859 117.621 3.45703C118.027 2.96484 118.453 2.69531 118.898 2.64844C118.633 2.63281 118.375 2.69531 118.125 2.83594C117.883 2.97656 117.672 3.14453 117.492 3.33984C117.18 3.66797 116.883 4.11719 116.602 4.6875C116.164 5.60156 115.84 6.60938 115.629 7.71094L115.77 7.33594L115.91 6.97266C115.996 6.72266 116.086 6.47266 116.18 6.22266C116.438 5.58984 116.648 5.10938 116.812 4.78125ZM130.664 3.51562C131.398 5 131.812 6.91016 131.906 9.24609C132.008 11.957 131.867 14.0508 131.484 15.5273C131.047 17.207 130.305 18.0312 129.258 18C128.641 17.9844 128.113 17.7266 127.676 17.2266C127.34 16.8438 127.031 16.293 126.75 15.5742C126.664 15.3398 126.559 15.0391 126.434 14.6719L126.363 14.4609L126.293 14.25C126.246 14.1016 126.203 13.9727 126.164 13.8633C125.969 13.3164 125.781 13.0078 125.602 12.9375C125.406 12.8672 125.207 12.9414 125.004 13.1602C124.926 13.2461 124.832 13.3672 124.723 13.5234L124.57 13.7344L124.418 13.957C124.152 14.3555 123.918 14.6406 123.715 14.8125C123.41 15.0781 123.09 15.207 122.754 15.1992C122.309 15.1836 121.926 15.0078 121.605 14.6719C121.379 14.4219 121.164 14.0586 120.961 13.582L120.855 13.3008L120.797 13.1602L120.75 13.0312C120.672 12.8125 120.609 12.6562 120.562 12.5625C120.422 12.2656 120.277 12.1445 120.129 12.1992C119.926 12.2695 119.707 12.6133 119.473 13.2305C119.426 13.3477 119.371 13.4922 119.309 13.6641L119.227 13.8984L119.133 14.1445C118.992 14.5508 118.867 14.8828 118.758 15.1406C118.422 15.9219 118.062 16.4961 117.68 16.8633C117.172 17.332 116.582 17.4961 115.91 17.3555C114.762 17.1133 114.121 15.9297 113.988 13.8047C113.863 11.9375 114.121 9.82812 114.762 7.47656C115.754 3.8125 117.066 1.90234 118.699 1.74609C119.309 1.69141 119.898 1.89844 120.469 2.36719C120.922 2.73437 121.395 3.29687 121.887 4.05469C122.316 4.71875 122.672 5.07812 122.953 5.13281C123.391 5.22656 123.91 4.82031 124.512 3.91406C125.215 2.875 125.789 2.17187 126.234 1.80469C126.812 1.33594 127.457 1.14844 128.168 1.24219C129.137 1.36719 129.969 2.125 130.664 3.51562Z" fill="#EF2FA2"/>
</svg>
