<svg width="670" height="472" viewBox="0 0 670 472" fill="none" xmlns="http://www.w3.org/2000/svg">
<g clip-path="url(#clip0_1147_105)">
<mask id="mask0_1147_105" style="mask-type:alpha" maskUnits="userSpaceOnUse" x="0" y="0" width="671" height="473">
<path d="M670 236.007C670 366.345 520.016 472.008 335 472.008C149.985 472.008 0 366.345 0 236.007C0 105.668 149.985 0.00683594 335 0.00683594C520.016 0.00683594 670 105.668 670 236.007Z" fill="black"/>
</mask>
<g mask="url(#mask0_1147_105)">
<ellipse cx="335" cy="235" rx="335" ry="235" fill="#FECFEE" fill-opacity="0.64"/>
<g filter="url(#filter0_d_1147_105)">
<path d="M93.6883 173.672C93.9782 173.004 94.0343 172.293 93.8564 171.54C93.6759 170.815 93.3282 170.191 92.8129 169.667C92.3133 169.131 91.7347 168.753 91.0772 168.535C92.2761 169.467 93.0119 170.509 93.2837 171.662C93.4302 172.282 93.4248 172.911 93.2671 173.548C93.1123 174.156 92.8093 174.729 92.3582 175.267C92.981 174.903 93.4245 174.372 93.6883 173.672ZM86.9302 172.654C87.2608 173.147 87.7394 173.515 88.3657 173.759C89.0077 173.99 89.6169 174.023 90.1934 173.858C90.7544 173.706 91.12 173.399 91.2906 172.937C91.4615 172.475 91.3815 171.997 91.0507 171.505C90.7201 171.013 90.2415 170.644 89.6151 170.4C88.9732 170.169 88.3639 170.136 87.7874 170.301C87.2267 170.453 86.8608 170.76 86.6902 171.222C86.5196 171.685 86.5996 172.162 86.9302 172.654ZM78.8865 164.47C78.7183 164.903 78.4866 165.323 78.1911 165.731C78.6427 165.511 79.0057 165.153 79.2802 164.657C79.5368 164.203 79.697 163.697 79.7612 163.138C79.8528 161.946 79.5199 160.99 78.7629 160.272C78.9351 160.764 79.0592 161.231 79.1353 161.672C79.2036 162.199 79.2187 162.677 79.1805 163.108C79.1421 163.538 79.0442 163.992 78.8865 164.47ZM75.0205 161.541C74.8445 161.902 74.8008 162.31 74.8899 162.766C74.966 163.207 75.1431 163.563 75.4215 163.834C75.6999 164.105 75.9923 164.218 76.2987 164.173C76.6207 164.115 76.862 163.912 77.0225 163.565C77.1986 163.205 77.2422 162.797 77.1531 162.34C77.077 161.9 76.8999 161.544 76.6215 161.273C76.3431 161.002 76.0507 160.889 75.7443 160.934C75.4223 160.992 75.181 161.194 75.0205 161.541ZM67.4929 164.316C67.4007 163.411 67.3851 162.614 67.4464 161.925C67.4867 161.148 67.6204 160.372 67.8479 159.597C68.2714 158.073 69.076 156.72 70.2612 155.539C69.6592 155.991 69.09 156.562 68.5532 157.252C68.1255 157.85 67.7503 158.59 67.4269 159.472C66.9122 160.887 66.7458 162.513 66.9281 164.352C67.1021 165.958 67.5085 167.543 68.1473 169.104C68.7864 170.665 69.5445 172.1 70.4219 173.408C69.6452 171.777 69.0284 170.289 68.5719 168.947C68.0029 167.247 67.6433 165.703 67.4929 164.316ZM84.1151 161.793C84.298 162.33 84.567 162.542 84.9228 162.429C88.4252 161.268 91.8149 161.211 95.0922 162.257C98.1306 163.238 100.548 164.966 102.344 167.441C104.18 169.963 104.944 172.708 104.637 175.674C104.333 178.93 102.755 181.927 99.9051 184.665C96.9145 187.521 93.5827 189.03 89.9099 189.192C86.6139 189.331 83.2483 188.385 79.8136 186.356C76.6519 184.496 73.7969 181.94 71.2485 178.689C68.7524 175.5 66.9338 172.141 65.7932 168.611C64.6994 165.201 64.5192 162.126 65.2526 159.386C65.9111 157 67.1704 155.067 69.0305 153.585C70.7351 152.233 72.6161 151.491 74.6731 151.357C76.7171 151.208 78.3947 151.698 79.7059 152.828C80.8971 153.846 81.8301 155.015 82.5051 156.333C82.9844 157.259 83.3654 158.32 83.648 159.517C83.7002 159.738 83.7513 159.974 83.8009 160.225L83.8599 160.534L83.8993 160.819C83.9884 161.275 84.0603 161.6 84.1151 161.793Z" fill="#EF75BE"/>
</g>
<g filter="url(#filter1_d_1147_105)">
<path d="M121.476 153.297C121.794 152.777 121.976 152.175 122.021 151.492C122.105 150.154 121.687 149.031 120.768 148.123C121.272 149.323 121.492 150.44 121.43 151.473C121.35 152.591 120.947 153.638 120.222 154.615C120.756 154.319 121.174 153.879 121.476 153.297ZM114.164 150.352C114.197 151.081 114.473 151.739 114.992 152.324C115.511 152.909 116.128 153.25 116.841 153.346C117.554 153.443 118.156 153.272 118.647 152.834C119.138 152.396 119.368 151.812 119.335 151.083C119.33 150.359 119.059 149.71 118.523 149.136C118.004 148.551 117.387 148.21 116.674 148.113C115.95 148 115.342 148.162 114.851 148.6C114.371 149.056 114.142 149.639 114.164 150.352ZM98.9631 137.968C99.3726 136.347 100.064 134.847 101.038 133.467C101.915 132.199 103.091 131.004 104.567 129.881L103.475 130.549L102.955 130.922L102.45 131.321C101.765 131.908 101.169 132.523 100.663 133.164C99.6113 134.497 98.8569 136.05 98.3998 137.822C97.9672 139.482 97.8374 141.201 98.0106 142.978C98.1677 144.693 98.5567 146.356 99.1771 147.965L98.9192 146.715L98.6871 145.448L98.539 144.199L98.4988 143.571L98.4585 142.943C98.4157 141.106 98.584 139.447 98.9631 137.968ZM96.5529 136.689C98.1438 131.376 101.993 127.668 108.1 125.566C113.556 123.69 118.494 124.414 122.912 127.738C126.825 130.685 129.663 135.042 131.425 140.807C133.143 146.431 133.333 151.661 131.992 156.499C130.519 161.809 127.498 165.189 122.926 166.638C118.066 168.201 113.211 167.4 108.362 164.233C103.869 161.321 100.442 157.212 98.082 151.906C95.6682 146.44 95.1587 141.368 96.5529 136.689Z" fill="#EF75BE"/>
</g>
<g filter="url(#filter2_d_1147_105)">
<path d="M144.027 126.808C144.652 126.151 145.122 125.48 145.439 124.796C145.8 123.975 145.903 123.183 145.747 122.418C145.694 123.128 145.455 123.853 145.03 124.592C144.65 125.24 144.179 125.842 143.618 126.399C142.912 127.12 142.419 127.768 142.139 128.343C141.958 128.753 141.868 129.163 141.869 129.573C141.888 130.02 142.011 130.402 142.239 130.72C141.992 130.047 142.095 129.322 142.547 128.547C142.846 128.054 143.339 127.474 144.027 126.808ZM141.554 142.147C142.116 141.818 142.9 141.456 143.906 141.063L145.13 140.582L146.381 140.087C147.315 139.684 148.108 139.273 148.76 138.853L147.468 139.265L146.203 139.664C145.188 139.994 144.354 140.278 143.701 140.516C142.667 140.947 141.87 141.372 141.308 141.792C140.828 142.148 140.52 142.509 140.385 142.874C140.313 143.092 140.318 143.33 140.4 143.584C140.455 143.739 140.546 143.944 140.673 144.199L140.618 143.885L140.55 143.543C140.531 143.325 140.571 143.133 140.671 142.969C140.797 142.722 141.092 142.449 141.554 142.147ZM130.97 117.459C131.459 116.666 132.155 115.744 133.061 114.694C133.812 113.836 134.618 112.997 135.478 112.175C133.43 113.482 131.764 115.144 130.48 117.16C129.756 118.346 129.309 119.449 129.139 120.47C129.022 121.099 129.019 121.704 129.129 122.287C129.266 122.925 129.512 123.462 129.867 123.899C129.339 122.934 129.237 121.822 129.561 120.565C129.723 119.981 129.922 119.448 130.157 118.964C130.419 118.399 130.69 117.897 130.97 117.459ZM157.264 124.267C158.1 124.484 158.926 124.796 159.743 125.205C162.232 126.457 164.023 128.471 165.118 131.248C166.34 134.325 166.205 137.414 164.714 140.515C163.657 142.713 161.801 144.584 159.146 146.129C156.735 147.528 154.024 148.463 151.013 148.934C148.056 149.377 145.442 149.282 143.173 148.649C140.74 147.962 139.186 146.762 138.511 145.051C137.946 143.557 138.047 142.286 138.816 141.237C139.432 140.425 140.542 139.671 142.146 138.975C142.663 138.737 143.375 138.458 144.281 138.137L145.342 137.739C145.75 137.601 146.095 137.473 146.376 137.354C147.926 136.731 148.936 136.119 149.407 135.516C149.706 135.115 149.841 134.705 149.813 134.286C149.794 133.885 149.639 133.553 149.348 133.289C148.63 132.671 147.636 132.705 146.368 133.391C145.108 134.095 143.893 134.275 142.721 133.931C141.641 133.587 140.805 132.892 140.213 131.845C139.056 129.716 139.66 127.473 142.023 125.118C142.657 124.478 143.091 123.872 143.326 123.297C143.525 122.741 143.496 122.345 143.242 122.108C142.997 121.845 142.579 121.827 141.99 122.056C141.319 122.304 140.531 122.816 139.625 123.592C134.281 128.34 130.39 128.868 127.951 125.173C126.968 123.708 126.679 121.996 127.083 120.036C127.442 118.305 128.328 116.513 129.74 114.66C131.052 112.926 132.646 111.37 134.521 109.99C136.396 108.61 138.245 107.632 140.068 107.054C143.74 105.862 146.898 105.842 149.54 106.994C152.046 108.101 153.743 110.083 154.629 112.942C154.976 114.044 155.073 115.215 154.922 116.454C154.805 117.356 154.54 118.368 154.125 119.49L153.881 120.16L153.732 120.475L153.61 120.775C153.421 121.259 153.285 121.623 153.204 121.869C152.969 122.581 152.943 123.073 153.125 123.346C153.28 123.564 153.548 123.714 153.929 123.795C154.074 123.813 154.279 123.835 154.542 123.862L154.909 123.916L155.304 123.956C156.021 124.028 156.674 124.131 157.264 124.267Z" fill="#EF75BE"/>
</g>
<g filter="url(#filter3_d_1147_105)">
<path d="M193.442 116.859C193.822 116.242 193.975 115.567 193.902 114.834C193.831 114.166 193.6 113.535 193.21 112.941C193.368 113.729 193.438 114.365 193.421 114.849C193.395 115.488 193.235 116.057 192.942 116.555C192.673 117.002 192.253 117.449 191.682 117.898C191.312 118.187 190.784 118.544 190.097 118.971C190.748 118.861 191.367 118.633 191.954 118.287C192.591 117.9 193.087 117.424 193.442 116.859ZM185.559 113.384C185.495 115.1 185.766 116.226 186.373 116.763C186.932 117.229 187.863 117.233 189.165 116.775C190.467 116.317 191.177 115.806 191.295 115.242C191.374 114.865 191.275 114.359 190.999 113.723C190.738 113.125 190.374 112.543 189.908 111.977C188.768 110.574 187.738 110.031 186.817 110.349C186.048 110.611 185.629 111.622 185.559 113.384ZM174.93 104.345C175.099 102.677 175.369 101.112 175.743 99.6506C176.156 98.0012 176.7 96.5315 177.373 95.2414C178.23 93.6236 179.288 92.496 180.546 91.8589C179.834 92.0994 179.154 92.513 178.503 93.0997C177.918 93.6846 177.404 94.3188 176.962 95.0023C176.222 96.23 175.625 97.7303 175.171 99.5035C174.765 101.172 174.53 102.778 174.467 104.32C174.408 105.991 174.475 107.594 174.668 109.129C174.715 107.245 174.802 105.651 174.93 104.345ZM170.501 127.885C170.695 127.53 170.979 127.155 171.353 126.757C171.575 126.479 171.905 126.14 172.343 125.741L172.895 125.212L173.419 124.693C172.459 125.025 171.626 125.582 170.917 126.364C170.501 126.821 170.228 127.258 170.099 127.674C169.898 128.247 169.927 128.769 170.184 129.238C170.157 128.749 170.262 128.298 170.501 127.885ZM202.853 110.234C203.343 110.509 204.007 110.612 204.846 110.542C207.83 110.31 210.154 110.875 211.819 112.236C213.523 113.648 214.162 115.604 213.737 118.105C213.29 120.787 211.006 123.289 206.884 125.611C204.106 127.177 199.941 128.907 194.388 130.801C188.287 132.854 183.001 134.031 178.53 134.333C173.527 134.658 170.291 133.788 168.824 131.725C167.773 130.267 167.485 128.8 167.961 127.323C168.483 125.676 169.888 124.139 172.176 122.71C172.982 122.196 173.491 121.639 173.705 121.04C173.901 120.512 173.923 119.744 173.771 118.737C173.716 118.41 173.607 117.875 173.444 117.132L173.372 116.67L173.251 116.161C173.175 115.777 173.11 115.421 173.055 115.094C172.696 113.165 172.452 111.226 172.324 109.277C172.004 104.381 172.553 100.088 173.971 96.3974C175.376 92.7331 177.347 90.4662 179.882 89.5973C182.843 88.5928 185.924 89.1287 189.124 91.2044C192.542 93.4606 195.695 97.2684 198.583 102.628C198.949 103.274 199.289 103.941 199.605 104.627C199.844 105.104 200.105 105.67 200.387 106.325C200.972 107.629 201.376 108.467 201.599 108.841C201.978 109.526 202.397 109.99 202.853 110.234Z" fill="#EF75BE"/>
</g>
<g filter="url(#filter4_d_1147_105)">
<path d="M234.387 78.021C234.644 77.3693 234.925 76.8162 235.231 76.3622C235.616 75.7205 236.054 75.2962 236.547 75.0896C236.049 75.1924 235.532 75.5522 234.995 76.1692C234.645 76.6133 234.3 77.1612 233.959 77.8129C233.525 78.6768 233.068 79.872 232.588 81.398L232.032 83.2057C231.809 83.9958 231.635 84.6058 231.512 85.0355C231.27 85.7467 231.035 86.3193 230.808 86.7538C230.512 87.3314 230.117 87.8076 229.625 88.1823C230.132 87.951 230.612 87.5267 231.066 86.91C231.318 86.4904 231.604 85.9151 231.925 85.1844C232.137 84.6905 232.355 84.0905 232.577 83.3843L232.852 82.4656L233.134 81.5766C233.574 80.1445 233.992 78.9593 234.387 78.021ZM222.825 107.731L223.801 106.606C224.615 105.669 225.212 104.827 225.592 104.082C225.316 104.402 224.968 104.772 224.549 105.192L224.024 105.732L223.47 106.279C222.612 107.123 221.92 107.873 221.392 108.529C220.613 109.521 220.083 110.42 219.801 111.225C219.638 111.748 219.536 112.267 219.496 112.781C219.51 113.344 219.585 113.86 219.722 114.33C219.694 113.707 219.714 113.199 219.784 112.803C219.883 112.359 220.029 111.892 220.221 111.403C220.577 110.643 221.125 109.814 221.864 108.916C222.101 108.605 222.421 108.21 222.825 107.731ZM211.581 86.4784C211.582 85.8906 211.681 85.362 211.879 84.8929C212.289 83.8459 213.045 83.0591 214.148 82.5321C213.528 82.5608 212.965 82.7749 212.457 83.1741C211.964 83.5491 211.595 84.0402 211.348 84.6475C211.105 85.2747 211.028 85.8922 211.116 86.5C211.189 87.1327 211.409 87.6863 211.778 88.1612C211.626 87.5483 211.56 86.9874 211.581 86.4784ZM232.856 75.3801C233.758 73.9584 234.801 73.1005 235.982 72.8058C238.261 72.2164 240.083 72.8642 241.448 74.7491C243.063 76.9701 243.95 80.8108 244.109 86.2711C244.258 91.6078 243.065 97.5626 240.531 104.135C237.719 111.449 234.284 116.325 230.226 118.764C227.202 120.568 224.406 121.013 221.839 120.1C220.688 119.673 219.727 118.999 218.956 118.079C218.18 117.139 217.668 116.039 217.419 114.779C217.096 113.138 217.303 111.522 218.039 109.932C218.553 108.796 219.44 107.526 220.702 106.119L221.471 105.298L221.841 104.891L222.188 104.521C222.75 103.919 223.172 103.426 223.453 103.041C224.217 101.989 224.477 101.095 224.232 100.359C223.997 99.6615 223.363 98.959 222.331 98.2508C221.653 97.7902 220.488 97.1359 218.836 96.2884L217.833 95.7828L216.822 95.2477C216.05 94.8312 215.37 94.4448 214.78 94.088C213.251 93.1469 212.024 92.2037 211.101 91.2584C209.829 89.9172 209.127 88.4337 208.997 86.808C208.872 85.2859 209.23 83.9053 210.074 82.6664C210.917 81.4275 212.068 80.6264 213.525 80.2631C215.115 79.8456 216.797 80.0558 218.572 80.8939C219.684 81.4144 220.841 82.0387 222.046 82.7671C222.493 83.0544 222.98 83.3739 223.506 83.7257C223.702 83.8446 223.926 83.988 224.177 84.1565L224.516 84.3867L224.818 84.5948C226.642 85.7986 227.78 86.3438 228.233 86.2309C228.661 86.1031 229.11 85.3824 229.58 84.0689C229.728 83.654 229.94 82.9921 230.218 82.0836L230.366 81.5427L230.537 80.9649L230.908 79.8018C231.545 77.9005 232.195 76.4266 232.856 75.3801Z" fill="#EF75BE"/>
</g>
<g filter="url(#filter5_d_1147_105)">
<path d="M281.984 70.7328C282.06 69.6926 282.306 68.8537 282.727 68.2158C283.163 67.5352 283.903 67.0567 284.95 66.7808C284.459 66.7904 283.989 66.8794 283.542 67.0473C283.059 67.2413 282.659 67.5362 282.348 67.9316C281.81 68.6067 281.491 69.528 281.395 70.695C281.322 71.6114 281.387 72.5593 281.59 73.5385C281.67 73.9588 281.789 74.4254 281.945 74.9378L282.382 76.2638C282.35 75.8979 282.293 75.4327 282.213 74.8682L282.14 74.1682L282.041 73.4725C281.943 72.3752 281.925 71.4619 281.984 70.7328ZM281.618 91.4132C282.062 91.2249 282.467 90.9086 282.833 90.4642C283.493 89.6475 283.766 88.6918 283.649 87.597C283.187 88.7966 282.763 89.6303 282.382 90.0979C281.862 90.7701 281.109 91.3018 280.12 91.6927C280.618 91.7436 281.119 91.6505 281.618 91.4132ZM268.301 74.145C268.41 73.7786 268.566 73.4269 268.763 73.0894C269.156 72.3942 269.755 71.9363 270.563 71.7157C270.153 71.7136 269.745 71.8038 269.343 71.9861C268.961 72.1858 268.641 72.4688 268.387 72.8352C267.938 73.4154 267.631 74.2011 267.468 75.1926C267.19 76.818 267.322 78.4457 267.865 80.0753C267.823 79.2168 267.808 78.4058 267.821 77.6423C267.847 76.6915 267.919 75.9089 268.036 75.295C268.083 74.9174 268.171 74.5341 268.301 74.145ZM266.618 93.8123C267.026 93.6501 267.387 93.3917 267.706 93.0365C268.361 92.3236 268.665 91.5076 268.613 90.5886L268.327 91.1553L268.005 91.6961C267.756 92.1029 267.514 92.4161 267.278 92.6354C266.803 93.1781 266.151 93.6332 265.323 94.0008C265.764 94.0606 266.195 93.9977 266.618 93.8123ZM252.48 74.6874C252.904 73.926 253.416 73.2853 254.017 72.7655C254.627 72.1621 255.349 71.7686 256.184 71.5855C255.372 71.6419 254.588 71.9618 253.832 72.5454C253.184 73.0307 252.61 73.6702 252.11 74.4634C251.249 75.7417 250.638 77.3332 250.278 79.2385C249.971 80.8065 249.848 82.5125 249.909 84.3561C249.976 86.0963 250.188 87.7741 250.544 89.3899C250.382 87.4166 250.314 85.7385 250.34 84.3553C250.399 82.35 250.569 80.6886 250.85 79.3714C251.185 77.5729 251.729 76.0114 252.48 74.6874ZM280.234 67.3438C281.208 65.5755 282.831 64.5984 285.101 64.4122C288.118 64.1582 290.468 65.823 292.154 69.4065C293.751 72.7974 294.779 78 295.239 85.0149L295.26 85.382L295.283 85.7495C295.309 86.0749 295.332 86.3701 295.351 86.6353C295.374 87.3728 295.395 88.08 295.41 88.7569C295.41 90.6097 295.301 92.3342 295.08 93.931C294.444 98.47 292.873 101.931 290.367 104.313C287.627 106.914 282.792 108.791 275.866 109.944C269.576 110.962 264.878 111.018 261.775 110.111C258.842 109.241 256.396 107.703 254.437 105.498C251.789 102.486 249.877 98.1226 248.703 92.406C247.312 85.6092 247.486 79.995 249.224 75.5629C249.986 73.5992 251.006 72.0716 252.284 70.9798C253.501 69.8968 254.861 69.3077 256.364 69.2125C260.225 68.9799 262.102 73.3898 261.996 82.4428C261.944 85.7849 262.274 88.2795 262.983 89.926C263.559 91.2213 264.229 91.8135 264.993 91.7024C266.779 91.4424 266.979 87.718 265.593 80.5293C265.076 77.805 265.146 75.4379 265.798 73.4284C266.561 71.0528 268.039 69.7056 270.228 69.387C272.095 69.1152 273.607 69.8008 274.767 71.4434C275.959 73.164 276.694 75.8463 276.975 79.4904C277.484 86.1476 278.362 89.4477 279.603 89.3904C280.761 89.3247 281.371 88.2891 281.431 86.2835C281.478 84.1976 280.922 80.4907 279.764 75.1628C279.039 71.851 279.195 69.2446 280.234 67.3438Z" fill="#EF75BE"/>
</g>
<g filter="url(#filter6_d_1147_105)">
<path d="M326.425 65.1638C326.653 64.8277 326.908 64.5922 327.186 64.4577C327.446 64.3242 327.796 64.2172 328.24 64.1367C327.794 64.1356 327.43 64.1922 327.149 64.3064C326.809 64.4232 326.495 64.641 326.204 64.9594C325.799 65.446 325.482 66.1532 325.259 67.0805C325.025 68.2326 324.958 69.7243 325.056 71.5551L325.082 72.1354L325.137 72.6835C325.155 73.1109 325.16 73.4677 325.152 73.7535C325.142 74.4675 325.03 75.176 324.817 75.8785C324.353 77.3467 323.444 78.4364 322.093 79.1476C322.794 78.9134 323.428 78.5186 323.992 77.9639C324.519 77.4311 324.927 76.7915 325.22 76.0446C325.495 75.3799 325.656 74.6286 325.7 73.7908C325.729 73.4632 325.721 73.076 325.682 72.6293L325.659 72.0796L325.633 71.5301C325.519 69.7814 325.547 68.3221 325.719 67.1522C325.864 66.2893 326.1 65.6267 326.425 65.1638ZM305.206 68.9631C305.543 67.8472 306.05 66.8972 306.727 66.1133C307.499 65.1824 308.421 64.6428 309.491 64.4942C308.961 64.4561 308.408 64.5515 307.829 64.7808C307.288 65.0082 306.805 65.3453 306.379 65.792C305.6 66.56 305.024 67.564 304.65 68.8037C304.014 70.9932 303.715 73.239 303.754 75.5416L304.079 73.8758L304.403 72.2405C304.673 70.9848 304.941 69.8922 305.206 68.9631ZM323.758 64.7907C324.534 63.0031 325.955 62.0033 328.017 61.791C330.907 61.5224 333.294 63.3661 335.169 67.322C336.979 71.1176 337.916 75.92 337.984 81.7287C338.088 89.2692 337.682 94.691 336.768 97.9934C335.524 102.554 333.107 104.913 329.52 105.069C327.391 105.162 325.724 104.408 324.519 102.809C323.184 101.093 322.537 98.552 322.574 95.1857C322.569 93.1873 322.223 91.7445 321.535 90.8568C320.997 90.1869 320.273 89.8716 319.361 89.9115C317.497 89.9926 316.788 91.9098 317.234 95.6629C317.84 100.796 316.211 103.732 312.345 104.471C310.612 104.791 309 104.382 307.509 103.244C305.681 101.855 304.302 99.4988 303.364 96.175C302.095 91.7033 301.383 86.9624 301.227 81.9527C301.064 76.7599 301.539 72.2326 302.653 68.3708C303.216 66.3684 304.182 64.7967 305.556 63.6561C306.966 62.4732 308.589 61.9845 310.428 62.19C312.711 62.4372 314.375 63.3434 315.417 64.9091C316.59 66.6729 317.063 69.3542 316.832 72.9534C316.764 74.2205 317.001 75.2401 317.544 76.0118C318.084 76.7633 318.85 77.1579 319.847 77.1962C320.844 77.2343 321.631 76.9044 322.21 76.206C322.909 75.401 323.192 74.2262 323.065 72.6819C322.75 69.1474 322.981 66.517 323.758 64.7907Z" fill="#EF75BE"/>
</g>
<g filter="url(#filter7_d_1147_105)">
<path d="M363.447 93.2283C364.07 92.997 364.579 92.6066 364.974 92.0566C365.366 91.5476 365.602 90.9585 365.677 90.2894C365.773 89.6419 365.716 89.0163 365.506 88.4131C365.47 89.0846 365.386 89.6818 365.257 90.2054C365.059 90.8271 364.81 91.3338 364.503 91.7252C363.823 92.6674 362.849 93.2163 361.579 93.3715C362.203 93.5279 362.823 93.4802 363.447 93.2283ZM359.543 87.66C359.411 88.224 359.481 88.8095 359.751 89.4158C360.024 90.0427 360.416 90.5027 360.928 90.7958C361.418 91.0879 361.883 91.1335 362.322 90.933C362.779 90.7335 363.065 90.3512 363.176 89.7858C363.309 89.2218 363.239 88.6264 362.969 87.9995C362.696 87.393 362.304 86.9431 361.792 86.65C361.299 86.3579 360.824 86.3016 360.367 86.4808C359.93 86.6813 359.655 87.0746 359.543 87.66ZM356.97 64.7503C357.476 64.4107 357.915 64.1591 358.292 63.9958C358.77 63.7771 359.255 63.6404 359.746 63.5854C358.819 63.4534 357.819 63.7153 356.747 64.3708C355.928 64.8569 355.118 65.537 354.321 66.4116C353.63 67.1494 353.004 67.9927 352.446 68.9417C351.981 69.6711 351.514 70.5945 351.046 71.7116L351.909 70.4424C352.262 69.9313 352.568 69.5094 352.83 69.1766C353.555 68.1755 354.196 67.3843 354.755 66.8025C355.49 65.9858 356.23 65.3015 356.97 64.7503ZM363.509 77.4092C363.748 78.2385 364.376 78.8339 365.394 79.1953C368.96 80.5117 371.546 82.662 373.151 85.6468C374.608 88.3988 375.018 91.3387 374.382 94.4667C373.725 97.5934 372.177 100.141 369.734 102.109C367.077 104.27 363.813 105.266 359.941 105.096C355.866 104.915 352.566 103.613 350.034 101.19C347.774 99.006 346.258 96.0566 345.484 92.3419C344.772 88.9367 344.749 85.2426 345.411 81.2593C346.065 77.4184 347.252 73.8716 348.971 70.6192C350.646 67.4868 352.449 65.1161 354.386 63.5079C356.09 62.0703 357.754 61.3245 359.382 61.2705C360.889 61.2097 362.153 61.7169 363.171 62.7926C364.171 63.8469 364.735 65.2345 364.867 66.9554C364.942 68.1633 364.818 69.5336 364.49 71.0665C364.387 71.5301 364.231 72.1541 364.026 72.9385L363.826 73.7848C363.748 74.1068 363.683 74.389 363.628 74.631C363.361 75.8404 363.319 76.7667 363.509 77.4092ZM378.033 66.9379C378.22 66.4789 378.496 66.106 378.857 65.8197C379.558 65.2254 380.48 64.8981 381.622 64.8379C380.454 64.6519 379.436 64.8517 378.571 65.4369C378.15 65.7201 377.802 66.1498 377.527 66.7267C377.34 67.1653 377.2 67.6881 377.106 68.2952C377.015 69.2084 377.091 70.2633 377.332 71.4597C377.509 72.3466 377.789 73.3412 378.176 74.4437L377.987 72.9031L377.763 71.3914C377.628 70.1191 377.602 69.1078 377.683 68.3573C377.75 67.8305 377.867 67.3575 378.033 66.9379ZM386.26 64.1419C387.59 65.1323 388.634 66.4542 389.4 68.1077C390.548 70.5574 391.101 74.0153 391.065 78.4813C391.039 82.7238 390.504 86.9794 389.46 91.248C388.387 95.6983 386.99 99.152 385.273 101.609C383.357 104.381 381.308 105.453 379.127 104.824C378.007 104.498 377.291 103.827 376.979 102.81C376.74 101.981 376.701 100.612 376.867 98.7027C376.885 98.3366 376.932 97.8698 377.002 97.3024L377.075 96.5412L377.148 95.7494C377.304 94.3911 377.418 93.2137 377.491 92.2181C377.722 89.0885 377.742 86.0395 377.558 83.0712C377.483 81.8427 377.22 80.2882 376.774 78.4072L376.473 77.2278L376.171 76.0178C375.919 75.0451 375.738 74.2599 375.629 73.6622C374.795 69.9037 374.917 67.0946 375.992 65.2353C376.574 64.2467 377.446 63.509 378.61 63.0213C379.776 62.5339 381.022 62.3775 382.355 62.5519C383.767 62.7308 385.068 63.2607 386.26 64.1419Z" fill="#EF75BE"/>
</g>
<g filter="url(#filter8_d_1147_105)">
<path d="M412.315 97.2817L412.788 97.1952C414.192 96.9636 415.434 96.8116 416.511 96.7388C415.982 96.5604 415.351 96.4702 414.613 96.4679C414.042 96.448 413.398 96.5002 412.684 96.6246C412.434 96.6507 412.118 96.7187 411.733 96.8285L411.289 96.9195L410.842 97.0408C410.232 97.1594 409.606 97.2345 408.965 97.2669C409.531 97.4711 410.178 97.5425 410.902 97.4815C411.149 97.4758 411.463 97.4379 411.842 97.3686L412.315 97.2817ZM404.945 68.5732C405.747 68.2556 406.628 68.0417 407.586 67.9317C408.381 67.8188 409.305 67.7966 410.362 67.8649C409.487 67.6782 408.555 67.607 407.565 67.6508C406.576 67.6946 405.649 67.861 404.789 68.1497C403.909 68.4355 403.049 68.8582 402.213 69.4178C401.527 69.9167 400.844 70.6015 400.169 71.4719C399.154 72.8499 398.292 74.5272 397.583 76.5044C396.972 78.2075 396.51 80.0243 396.196 81.955L396.604 80.5933C396.757 80.0803 396.902 79.6381 397.037 79.2662C397.331 78.3412 397.65 77.4708 397.99 76.6553C398.85 74.6377 399.733 73.0251 400.642 71.8175C401.247 71.019 401.881 70.3788 402.543 69.8971C403.21 69.3954 404.01 68.9542 404.945 68.5732ZM411.097 84.823L410.842 84.8794L410.37 84.9662L409.866 85.0486C410.154 85.1925 410.489 85.2815 410.874 85.3159C411.014 85.336 411.188 85.3401 411.393 85.3284H411.609L411.855 85.3326C412.141 85.3323 412.447 85.3451 412.772 85.3706C413.154 85.4252 413.46 85.5 413.691 85.5949C413.548 85.3068 413.284 85.0838 412.897 84.9255C412.606 84.8019 412.255 84.7417 411.845 84.7448C411.702 84.7448 411.525 84.7607 411.315 84.7925L411.097 84.823ZM408.388 94.6224C409.071 95.0078 409.962 95.0735 411.066 94.8193C414.662 94.0158 417.371 94.1248 419.194 95.1465C420.924 96.1135 421.612 97.755 421.264 100.072C420.999 101.804 419.908 103.418 417.997 104.915C416.197 106.325 413.987 107.388 411.367 108.104C408.679 108.852 406.093 109.09 403.613 108.818C400.889 108.512 398.679 107.62 396.983 106.143C395.269 104.643 394.066 102.054 393.378 98.3752C392.737 94.9499 392.623 91.1267 393.036 86.9056C393.472 82.6669 394.36 78.8531 395.7 75.4639C397.144 71.781 398.923 69.1951 401.039 67.7072C403.296 66.0951 405.888 65.3125 408.812 65.3594C411.385 65.4181 413.863 66.0805 416.244 67.3468C418.509 68.5753 420.134 70.0523 421.121 71.7776C422.193 73.5975 422.266 75.2542 421.339 76.7474C420.786 77.615 419.976 78.1889 418.914 78.469C418.127 78.6654 417.065 78.7196 415.725 78.6312L414.87 78.5712L414.052 78.4852C413.385 78.4309 412.845 78.4054 412.434 78.4085C411.25 78.3835 410.346 78.5426 409.723 78.886C409.302 79.1136 408.988 79.4597 408.778 79.9236C408.591 80.3703 408.536 80.8256 408.614 81.2895C408.848 82.3929 409.653 82.8677 411.027 82.7142C412.65 82.5342 413.979 82.8375 415.016 83.6232C416.036 84.386 416.496 85.3986 416.4 86.6604C416.288 88.0232 415.691 89.0697 414.603 89.7994C413.445 90.601 411.777 90.9494 409.599 90.8443C408.845 90.8187 408.259 91.054 407.838 91.5499C407.422 92.0256 407.264 92.5688 407.363 93.1795C407.454 93.8307 407.796 94.3115 408.388 94.6224Z" fill="#EF75BE"/>
</g>
<g filter="url(#filter9_d_1147_105)">
<path d="M482.561 87.2136C483.049 86.2935 483.615 85.6281 484.257 85.2168C484.929 84.7719 485.799 84.6371 486.869 84.8118C486.417 84.6207 485.952 84.5104 485.474 84.4817C484.953 84.4614 484.469 84.5683 484.025 84.8022C483.262 85.1999 482.597 85.912 482.036 86.9384C481.6 87.7463 481.275 88.6389 481.065 89.6163C480.969 90.0336 480.888 90.5084 480.823 91.0404L480.686 92.4303C480.805 92.0827 480.94 91.6345 481.096 91.0855L481.314 90.4172L481.504 89.7405C481.86 88.6981 482.21 87.8556 482.561 87.2136ZM473.861 105.962C474.342 105.971 474.84 105.847 475.354 105.591C476.289 105.114 476.926 104.352 477.261 103.304C476.352 104.211 475.63 104.8 475.09 105.071C474.344 105.474 473.44 105.653 472.378 105.607C472.815 105.857 473.308 105.975 473.861 105.962ZM468.675 84.7505C468.924 84.4614 469.208 84.2027 469.524 83.9748C470.163 83.4994 470.898 83.3257 471.726 83.454C471.353 83.2847 470.942 83.201 470.501 83.2029C470.072 83.2297 469.667 83.3585 469.285 83.5896C468.641 83.9364 468.041 84.5294 467.491 85.3683C466.579 86.7403 466.042 88.2817 465.878 89.9921C466.187 89.1905 466.502 88.4436 466.824 87.751C467.231 86.8931 467.613 86.2072 467.969 85.6938C468.166 85.3683 468.4 85.0541 468.675 84.7505ZM459.183 102.037C459.622 102.055 460.059 101.966 460.492 101.771C461.378 101.387 461.986 100.765 462.31 99.9046L461.819 100.305L461.305 100.668C460.916 100.939 460.568 101.126 460.264 101.231C459.609 101.533 458.83 101.683 457.924 101.681C458.301 101.915 458.721 102.033 459.183 102.037ZM454 78.7942C454.693 78.2711 455.421 77.8946 456.181 77.6648C456.984 77.3621 457.802 77.2974 458.638 77.4703C457.875 77.1907 457.028 77.1633 456.101 77.3881C455.314 77.5675 454.53 77.9178 453.751 78.4385C452.447 79.2553 451.247 80.4606 450.146 82.0547C449.232 83.3625 448.43 84.8713 447.739 86.5809C447.097 88.1982 446.612 89.8176 446.285 91.4394C446.934 89.5702 447.549 88.0089 448.134 86.7556C448.998 84.9472 449.827 83.4986 450.616 82.4096C451.65 80.9026 452.777 79.6975 454 78.7942ZM482.332 83.4029C483.937 82.1845 485.815 81.9532 487.962 82.7087C490.824 83.7075 492.299 86.1879 492.39 90.1501C492.478 93.8998 491.312 99.073 488.895 105.67L488.767 106.015L488.638 106.36C488.531 106.668 488.432 106.947 488.341 107.196C488.066 107.88 487.796 108.535 487.539 109.16C486.789 110.853 485.991 112.384 485.145 113.754C482.727 117.642 479.891 120.163 476.637 121.318C473.082 122.578 467.906 122.322 461.11 120.55C454.951 118.915 450.634 117.05 448.167 114.956C445.838 112.964 444.223 110.561 443.327 107.747C442.124 103.915 442.143 99.1476 443.381 93.445C444.859 86.6667 447.29 81.6072 450.671 78.2662C452.161 76.7826 453.712 75.8026 455.319 75.3259C456.87 74.8328 458.352 74.8492 459.763 75.3752C463.385 76.7375 463.318 81.5329 459.557 89.7616C458.16 92.7951 457.451 95.2089 457.433 97.0027C457.436 98.4216 457.81 99.2357 458.55 99.4454C460.29 99.9367 461.978 96.615 463.619 89.4807C464.25 86.7804 465.271 84.6455 466.678 83.0753C468.338 81.216 470.233 80.5873 472.36 81.1886C474.178 81.7021 475.282 82.9457 475.679 84.9198C476.071 86.9778 475.658 89.729 474.44 93.1733C472.215 99.4647 471.68 102.838 472.838 103.292C473.923 103.705 474.9 103.007 475.765 101.198C476.65 99.3111 477.642 95.697 478.738 90.3561C479.416 87.0344 480.613 84.7167 482.332 83.4029Z" fill="#EF75BE"/>
</g>
<g filter="url(#filter10_d_1147_105)">
<path d="M508.442 119.765C508.902 119.82 509.39 119.776 509.907 119.634C510.945 119.331 511.714 118.754 512.213 117.9C511.275 118.487 510.46 118.882 509.766 119.083C508.902 119.326 508.006 119.38 507.076 119.244C507.463 119.533 507.917 119.707 508.442 119.765ZM507.094 115.363C507.014 115.945 507.151 116.419 507.507 116.783C507.873 117.128 508.346 117.255 508.93 117.162C509.522 117.051 510.047 116.758 510.499 116.283C510.961 115.789 511.231 115.251 511.314 114.668C511.377 114.078 511.223 113.611 510.86 113.265C510.496 112.919 510.021 112.793 509.437 112.885C508.852 112.978 508.33 113.271 507.868 113.765C507.416 114.24 507.157 114.773 507.094 115.363ZM504.918 102.581C506.596 101.35 507.99 100.388 509.099 99.696C510.686 98.6915 512.158 97.8833 513.522 97.2713L514.116 97.0181C514.327 96.9281 514.516 96.8624 514.688 96.8215L515.298 96.6079L515.887 96.4511C516.89 96.2428 517.721 96.2399 518.383 96.4428C517.778 96.1531 516.929 96.0613 515.835 96.1672L515.202 96.2728L514.576 96.4465C514.404 96.4877 514.205 96.5492 513.976 96.6316L513.363 96.8452C512.002 97.3474 510.473 98.1326 508.772 99.2013C507.299 100.142 505.92 101.153 504.632 102.234C503.24 103.406 501.997 104.57 500.895 105.728L502.913 104.141C503.677 103.549 504.344 103.029 504.918 102.581ZM509.592 96.2702C514.171 93.7553 517.606 93.1829 519.9 94.5527C522.185 95.9416 523.618 99.0166 524.197 103.778C524.686 107.998 524.46 112.86 523.512 118.366C522.606 123.666 521.281 128.183 519.539 131.914C517.671 135.903 515.781 137.937 513.867 138.017C512.241 138.084 510.86 137.545 509.722 136.403C508.871 135.53 508.06 134.201 507.289 132.416L506.858 131.285L506.416 130.183C506.068 129.251 505.796 128.569 505.598 128.137C504.967 126.716 504.303 125.865 503.607 125.582C502.929 125.307 501.88 125.497 500.457 126.15C500.054 126.338 499.392 126.674 498.475 127.159L497.4 127.711C496.99 127.918 496.608 128.104 496.257 128.269C494.458 129.099 492.894 129.53 491.567 129.563C489.796 129.614 488.236 129.003 486.888 127.731C485.091 126.057 485.288 123.061 487.485 118.744C489.485 114.809 492.632 110.659 496.925 106.293C501.254 101.897 505.476 98.5561 509.592 96.2702Z" fill="#EF75BE"/>
</g>
<g filter="url(#filter11_d_1147_105)">
<path d="M546.403 128.6C547.032 128.402 547.582 128.093 548.052 127.673C548.551 127.244 548.909 126.754 549.128 126.202C548.232 127.088 547.258 127.704 546.209 128.05C545.697 128.242 545.152 128.346 544.57 128.363C544.006 128.389 543.427 128.315 542.83 128.141C543.297 128.523 543.864 128.751 544.534 128.827C545.141 128.892 545.765 128.817 546.403 128.6ZM546.079 122.225C545.489 122.215 544.918 122.41 544.367 122.81C543.843 123.202 543.482 123.678 543.282 124.24C543.108 124.792 543.157 125.267 543.432 125.664C543.708 126.06 544.139 126.264 544.728 126.275C545.3 126.276 545.863 126.076 546.414 125.676C546.956 125.293 547.328 124.821 547.528 124.26C547.699 123.707 547.65 123.232 547.375 122.836C547.102 122.439 546.668 122.235 546.079 122.225ZM541.451 110.593C542.83 110.098 544.282 109.882 545.803 109.946C547.128 109.997 548.593 110.305 550.197 110.871C549.587 110.55 548.883 110.251 548.091 109.972C547.341 109.74 546.585 109.586 545.824 109.509C544.295 109.327 542.773 109.505 541.256 110.043C539.812 110.574 538.493 111.352 537.296 112.379C536.725 112.861 536.169 113.398 535.634 113.99C535.06 114.654 534.6 115.252 534.255 115.783C535.439 114.519 536.54 113.5 537.561 112.725C538.867 111.755 540.163 111.044 541.451 110.593ZM541.991 107.705C545.409 106.9 548.915 107.463 552.511 109.394C555.937 111.259 558.222 113.687 559.367 116.678C560.424 119.439 560.416 122.25 559.341 125.111C558.284 127.935 556.425 130.213 553.763 131.942C550.917 133.806 547.681 134.66 544.053 134.505C542.957 134.458 542.098 134.744 541.48 135.361C540.973 135.854 540.527 136.666 540.145 137.798C540.077 138.016 539.999 138.274 539.914 138.573L539.654 139.402C539.423 140.155 539.244 140.739 539.119 141.156C538.62 142.596 538.028 143.802 537.34 144.775C536.372 146.197 535.177 147.11 533.754 147.513C532.331 147.916 530.996 147.711 529.749 146.896C528.357 146.006 527.295 144.506 526.56 142.397C525.722 140.004 525.379 137.032 525.532 133.481C525.688 129.793 526.472 126.125 527.89 122.478C529.344 118.713 531.24 115.548 533.582 112.983C536.146 110.167 538.948 108.408 541.991 107.705Z" fill="#EF75BE"/>
</g>
<g filter="url(#filter12_d_1147_105)">
<path d="M146.101 276.532C147.542 275.786 148.681 274.618 149.518 273.03C150.262 271.489 150.564 269.88 150.425 268.198C150.332 266.518 149.844 265.001 148.96 263.647C149.751 267.056 149.541 269.974 148.333 272.399C147.682 273.708 146.752 274.806 145.543 275.692C144.381 276.532 142.986 277.093 141.359 277.372C142.986 277.653 144.567 277.372 146.101 276.532ZM135.64 264.766C135.5 266.119 135.826 267.475 136.616 268.829C137.407 270.182 138.406 271.139 139.615 271.7C140.87 272.261 141.986 272.261 142.963 271.7C143.939 271.139 144.497 270.182 144.636 268.829C144.776 267.475 144.45 266.119 143.66 264.766C142.916 263.412 141.916 262.455 140.661 261.895C139.406 261.334 138.29 261.334 137.314 261.895C136.337 262.455 135.779 263.412 135.64 264.766ZM133.548 238.504C132.618 239.018 131.572 239.415 130.409 239.695C131.525 239.975 132.711 239.882 133.966 239.415C135.082 238.995 136.081 238.341 136.965 237.454C138.871 235.493 139.685 233.322 139.406 230.941C138.987 232.062 138.522 233.066 138.011 233.952C137.36 234.98 136.709 235.843 136.058 236.544C135.361 237.244 134.524 237.898 133.548 238.504ZM130.967 227.65C130.177 228.023 129.526 228.677 129.014 229.611C128.503 230.498 128.294 231.385 128.387 232.272C128.433 233.159 128.782 233.789 129.433 234.163C130.037 234.536 130.758 234.536 131.595 234.163C132.385 233.789 133.036 233.135 133.548 232.202C134.059 231.315 134.291 230.428 134.245 229.54C134.152 228.653 133.78 228.023 133.129 227.65C132.525 227.276 131.804 227.276 130.967 227.65ZM113.741 221.417C114.903 219.689 116.043 218.265 117.158 217.145C118.367 215.838 119.715 214.67 121.204 213.643C124.179 211.589 127.596 210.399 131.455 210.072C129.689 209.978 127.829 210.142 125.876 210.562C124.249 210.982 122.528 211.729 120.715 212.803C117.74 214.53 115.043 217.145 112.625 220.646C110.626 223.728 109.045 227.113 107.883 230.801C106.721 234.489 105.953 238.131 105.581 241.726C106.604 237.711 107.697 234.186 108.859 231.151C110.301 227.323 111.928 224.078 113.741 221.417ZM146.659 241.516C146.148 242.73 146.31 243.5 147.147 243.827C154.958 246.955 160.979 251.857 165.21 258.534C169.162 264.742 170.906 271.35 170.44 278.352C169.929 285.495 167.256 291.448 162.42 296.21C157.073 301.485 149.914 304.427 140.94 305.035C131.502 305.642 123.435 303.379 116.74 298.241C110.696 293.62 106.139 286.989 103.071 278.352C100.235 270.417 98.9792 261.71 99.3046 252.231C99.5838 242.94 101.304 234.349 104.466 226.459C107.488 218.849 111.672 213.176 117.019 209.441C121.622 206.22 126.666 204.679 132.153 204.819C137.128 204.959 141.521 206.43 145.334 209.231C149.146 211.986 151.378 215.324 152.029 219.246C152.633 222.794 152.564 226.226 151.82 229.54C151.308 231.875 150.402 234.303 149.1 236.824C148.914 237.291 148.681 237.781 148.402 238.295L148.054 238.925L147.705 239.485C147.194 240.419 146.845 241.096 146.659 241.516ZM231.673 216.655C232.138 215.488 232.649 214.647 233.207 214.133C233.533 213.853 233.975 213.62 234.532 213.433L235.3 213.293L236.067 213.153C234.718 212.966 233.649 213.106 232.859 213.573C232.068 214.087 231.371 214.974 230.766 216.234C230.022 217.682 229.441 219.759 229.023 222.467C228.512 226.623 228.512 230.871 229.023 235.213L229.372 232.062L229.72 228.91C229.953 226.202 230.162 224.125 230.348 222.677C230.766 220.063 231.208 218.055 231.673 216.655ZM221.212 270.3C222.374 270.018 223.49 269.483 224.56 268.688C226.559 267.1 227.698 265.048 227.977 262.526L227 263.997C226.675 264.51 226.35 264.954 226.024 265.327C225.28 266.26 224.513 267.032 223.723 267.637C222.886 268.292 221.956 268.829 220.933 269.249C220.143 269.622 219.05 269.974 217.655 270.3C218.818 270.579 220.003 270.579 221.212 270.3ZM193.874 215.044C194.85 213.737 195.826 212.686 196.803 211.893C198.058 210.819 199.36 210.258 200.708 210.212C199.406 209.978 197.965 210.352 196.384 211.332C195.315 212.079 194.199 213.106 193.037 214.414C191.409 216.374 189.875 218.966 188.434 222.187C187.271 225.035 186.342 227.883 185.644 230.731C184.9 233.859 184.412 236.824 184.18 239.625L185.365 235.283C185.83 233.696 186.249 232.272 186.62 231.011C187.736 227.65 188.759 224.895 189.689 222.747C190.991 219.759 192.386 217.191 193.874 215.044ZM225.815 215.464C227.628 210.282 231.115 207.714 236.276 207.761C239.903 207.807 243.32 210.048 246.528 214.484C249.55 218.639 252.014 224.265 253.92 231.361C258.151 247.095 258.5 262.643 254.967 278.003C253.107 286.267 248.69 292.872 241.716 297.822C235.207 302.398 227.721 304.826 219.259 305.105C210.658 305.34 202.94 303.308 196.105 299.013C188.62 294.249 183.505 287.479 180.762 278.702C178.484 271.559 177.391 263.506 177.484 254.542C177.577 246.091 178.647 237.968 180.692 230.171C182.831 222.374 185.621 216.211 189.061 211.682C192.781 206.78 196.803 204.492 201.126 204.819C206.241 205.239 209.821 207.69 211.867 212.173C214.656 218.242 214.889 228.21 212.564 242.076C211.495 248.379 211.379 253.678 212.215 257.974C213.099 262.549 214.935 264.86 217.725 264.907C222.56 264.954 224.653 258.977 224.002 246.979C223.211 231.805 223.816 221.3 225.815 215.464ZM311.527 276.532C312.968 275.786 314.108 274.618 314.944 273.03C315.687 271.489 315.991 269.88 315.85 268.198C315.757 266.518 315.269 265.001 314.386 263.647C315.175 267.056 314.968 269.974 313.757 272.399C313.108 273.708 312.178 274.806 310.968 275.692C309.807 276.532 308.41 277.093 306.785 277.372C308.41 277.653 309.992 277.372 311.527 276.532ZM301.066 264.766C300.926 266.119 301.251 267.475 302.043 268.829C302.832 270.182 303.832 271.139 305.04 271.7C306.296 272.261 307.411 272.261 308.387 271.7C309.363 271.139 309.922 270.182 310.062 268.829C310.202 267.475 309.875 266.119 309.086 264.766C308.343 263.412 307.343 262.455 306.086 261.895C304.832 261.334 303.715 261.334 302.739 261.895C301.762 262.455 301.204 263.412 301.066 264.766ZM298.973 238.504C298.044 239.018 296.997 239.415 295.834 239.695C296.95 239.975 298.137 239.882 299.391 239.415C300.508 238.995 301.508 238.341 302.391 237.454C304.297 235.493 305.11 233.322 304.832 230.941C304.414 232.062 303.949 233.066 303.437 233.952C302.785 234.98 302.134 235.843 301.484 236.544C300.786 237.244 299.95 237.898 298.973 238.504ZM296.392 227.65C295.602 228.023 294.951 228.677 294.439 229.611C293.927 230.498 293.72 231.385 293.813 232.272C293.86 233.159 294.208 233.789 294.857 234.163C295.462 234.536 296.184 234.536 297.02 234.163C297.81 233.789 298.462 233.135 298.973 232.202C299.485 231.315 299.716 230.428 299.672 229.54C299.578 228.653 299.204 228.023 298.555 227.65C297.95 227.276 297.231 227.276 296.392 227.65ZM279.167 221.417C280.33 219.689 281.468 218.265 282.584 217.145C283.792 215.838 285.142 214.67 286.63 213.643C289.604 211.589 293.021 210.399 296.88 210.072C295.114 209.978 293.255 210.142 291.302 210.562C289.674 210.982 287.955 211.729 286.142 212.803C283.166 214.53 280.468 217.145 278.05 220.646C276.05 223.728 274.471 227.113 273.308 230.801C272.147 234.489 271.379 238.131 271.007 241.726C272.03 237.711 273.124 234.186 274.284 231.151C275.726 227.323 277.354 224.078 279.167 221.417ZM312.085 241.516C311.573 242.73 311.737 243.5 312.573 243.827C320.385 246.955 326.404 251.857 330.635 258.534C334.587 264.742 336.332 271.35 335.865 278.352C335.356 285.495 332.681 291.448 327.846 296.21C322.499 301.485 315.339 304.427 306.367 305.035C296.927 305.642 288.861 303.379 282.166 298.241C276.12 293.62 271.566 286.989 268.496 278.352C265.66 270.417 264.406 261.71 264.73 252.231C265.008 242.94 266.73 234.349 269.891 226.459C272.913 218.849 277.097 213.176 282.444 209.441C287.048 206.22 292.091 204.679 297.579 204.819C302.554 204.959 306.946 206.43 310.761 209.231C314.573 211.986 316.804 215.324 317.455 219.246C318.058 222.794 317.99 226.226 317.245 229.54C316.733 231.875 315.827 234.303 314.526 236.824C314.339 237.291 314.108 237.781 313.827 238.295L313.479 238.925L313.132 239.485C312.62 240.419 312.269 241.096 312.085 241.516ZM389.776 276.532C391.218 275.786 392.355 274.618 393.194 273.03C393.937 271.489 394.24 269.88 394.1 268.198C394.007 266.518 393.519 265.001 392.636 263.647C393.425 267.056 393.217 269.974 392.007 272.399C391.355 273.708 390.426 274.806 389.218 275.692C388.055 276.532 386.66 277.093 385.034 277.372C386.66 277.653 388.242 277.372 389.776 276.532ZM379.313 264.766C379.176 266.119 379.5 267.475 380.29 268.829C381.082 270.182 382.082 271.139 383.289 271.7C384.546 272.261 385.66 272.261 386.637 271.7C387.613 271.139 388.172 270.182 388.312 268.829C388.452 267.475 388.125 266.119 387.335 264.766C386.59 263.412 385.59 262.455 384.336 261.895C383.082 261.334 381.965 261.334 380.988 261.895C380.012 262.455 379.454 263.412 379.313 264.766ZM377.223 238.504C376.293 239.018 375.247 239.415 374.083 239.695C375.2 239.975 376.387 239.882 377.641 239.415C378.758 238.995 379.758 238.341 380.64 237.454C382.547 235.493 383.359 233.322 383.082 230.941C382.663 232.062 382.196 233.066 381.687 233.952C381.035 234.98 380.383 235.843 379.734 236.544C379.036 237.244 378.199 237.898 377.223 238.504ZM374.642 227.65C373.852 228.023 373.2 228.677 372.689 229.611C372.177 230.498 371.969 231.385 372.06 232.272C372.107 233.159 372.458 233.789 373.107 234.163C373.712 234.536 374.434 234.536 375.27 234.163C376.06 233.789 376.711 233.135 377.223 232.202C377.735 231.315 377.966 230.428 377.919 229.54C377.828 228.653 377.454 228.023 376.805 227.65C376.2 227.276 375.478 227.276 374.642 227.65ZM357.416 221.417C358.577 219.689 359.717 218.265 360.834 217.145C362.042 215.838 363.389 214.67 364.877 213.643C367.853 211.589 371.271 210.399 375.13 210.072C373.364 209.978 371.505 210.142 369.552 210.562C367.923 210.982 366.204 211.729 364.389 212.803C361.416 214.53 358.717 217.145 356.3 220.646C354.3 223.728 352.721 227.113 351.558 230.801C350.394 234.489 349.628 238.131 349.257 241.726C350.28 237.711 351.371 234.186 352.534 231.151C353.976 227.323 355.604 224.078 357.416 221.417ZM390.335 241.516C389.823 242.73 389.984 243.5 390.823 243.827C398.632 246.955 404.654 251.857 408.884 258.534C412.837 264.742 414.579 271.35 414.115 278.352C413.603 285.495 410.931 291.448 406.095 296.21C400.748 301.485 393.589 304.427 384.614 305.035C375.177 305.642 367.111 303.379 360.416 298.241C354.37 293.62 349.815 286.989 346.746 278.352C343.91 270.417 342.653 261.71 342.98 252.231C343.258 242.94 344.98 234.349 348.14 226.459C351.163 218.849 355.347 213.176 360.694 209.441C365.298 206.22 370.341 204.679 375.828 204.819C380.802 204.959 385.195 206.43 389.008 209.231C392.82 211.986 395.053 215.324 395.703 219.246C396.308 222.794 396.237 226.226 395.495 229.54C394.983 231.875 394.077 234.303 392.776 236.824C392.589 237.291 392.355 237.781 392.077 238.295L391.729 238.925L391.379 239.485C390.87 240.419 390.519 241.096 390.335 241.516ZM469.21 273.241C470.652 273.053 472.35 272.912 474.303 272.821C476.347 272.727 478.045 272.727 479.393 272.821C476.65 271.747 473.21 271.442 469.07 271.911C467.257 272.143 465.562 272.469 463.98 272.889L462.726 273.241L461.469 273.661C460.493 273.987 459.68 274.198 459.028 274.292C459.68 274.43 460.539 274.43 461.609 274.292L464.191 273.94L466.699 273.59L469.21 273.241ZM435.874 215.604C436.619 214.297 437.292 213.27 437.897 212.523C438.873 211.262 439.826 210.515 440.756 210.282C440.151 210.282 439.549 210.468 438.943 210.842C438.525 211.122 438.014 211.519 437.409 212.033C436.573 212.873 435.757 213.9 434.968 215.114C433.713 217.028 432.597 219.316 431.62 221.977C429.901 226.832 428.855 231.805 428.483 236.894L429.527 233.252L430.574 229.611C431.41 226.856 432.179 224.475 432.875 222.467C433.76 219.993 434.76 217.705 435.874 215.604ZM453.868 260.355C454.426 266.891 456.634 269.668 460.493 268.688C469.745 266.401 477.185 266.237 482.81 268.198C488.947 270.3 491.736 274.571 491.18 281.015C490.9 284.937 488.482 288.835 483.927 292.71C479.65 296.398 474.326 299.386 467.956 301.673C461.308 304.054 454.914 305.199 448.775 305.105C441.99 304.964 436.479 303.285 432.249 300.062C427.738 296.653 424.554 289.745 422.695 279.333C421.02 269.856 420.695 259.281 421.718 247.609C422.739 235.937 424.855 226.179 428.062 218.335C431.55 209.698 435.666 205.239 440.408 204.959C446.732 204.586 450.892 207.877 452.891 214.834C454.286 219.643 454.774 227.3 454.356 237.804L454.216 240.956L454.078 244.037C453.938 246.652 453.844 248.636 453.798 249.99C453.611 254.425 453.634 257.88 453.868 260.355ZM545.855 276.112L546.902 275.763C550.018 274.782 552.784 274.034 555.201 273.52C553.947 273.288 552.483 273.288 550.808 273.52C549.506 273.661 548.065 273.987 546.484 274.501C545.925 274.641 545.229 274.897 544.391 275.272L543.414 275.622L542.438 276.042C541.09 276.509 539.695 276.881 538.254 277.163C539.602 277.442 541.09 277.395 542.718 277.022C543.277 276.928 543.996 276.743 544.879 276.462L545.855 276.112ZM519.912 213.363C521.634 212.383 523.563 211.612 525.701 211.052C527.467 210.539 529.56 210.188 531.977 210.002C529.978 209.862 527.841 210.002 525.56 210.422C523.33 210.842 521.283 211.519 519.424 212.453C517.518 213.387 515.729 214.624 514.054 216.165C512.612 217.518 511.288 219.293 510.078 221.487C508.172 224.942 506.73 229.027 505.754 233.742C504.918 237.804 504.476 242.076 504.429 246.558L504.848 243.337C505.035 242.123 505.222 241.072 505.406 240.185C505.824 237.991 506.289 235.913 506.8 233.952C508.057 229.097 509.545 225.152 511.265 222.117C512.381 220.11 513.589 218.452 514.89 217.145C516.24 215.791 517.913 214.53 519.912 213.363ZM539.09 248.239L538.602 248.449L537.488 248.799L536.441 249.15C537.091 249.383 537.859 249.476 538.742 249.43C539.067 249.43 539.464 249.383 539.929 249.29L540.485 249.219L540.973 249.15C541.625 249.056 542.323 248.986 543.066 248.939C543.949 248.939 544.694 249.009 545.297 249.15C544.879 248.542 544.183 248.122 543.206 247.889C542.508 247.702 541.695 247.679 540.765 247.819C540.441 247.865 540.067 247.959 539.649 248.099L539.09 248.239ZM536.093 271.35C537.766 272.002 539.812 271.864 542.23 270.931C550.132 267.942 556.318 267.311 560.78 269.037C565.013 270.672 567.103 274.175 567.056 279.544C567.01 283.557 565.08 287.573 561.268 291.589C557.596 295.37 552.901 298.5 547.182 300.974C541.324 303.54 535.535 304.917 529.817 305.105C523.54 305.293 518.261 303.984 513.983 301.183C509.569 298.335 505.988 292.849 503.245 284.726C500.687 277.163 499.199 268.524 498.781 258.814C498.41 249.056 499.199 240.115 501.152 231.992C503.292 223.168 506.499 216.725 510.776 212.663C515.425 208.274 521.052 205.66 527.654 204.819C533.512 204.119 539.347 204.819 545.159 206.92C550.691 208.974 554.877 211.799 557.713 215.394C560.689 219.176 561.361 222.911 559.736 226.599C558.803 228.747 557.154 230.311 554.783 231.291C553.108 231.992 550.714 232.458 547.6 232.692L545.718 232.832L543.765 232.902C542.23 232.995 540.996 233.112 540.067 233.252C537.371 233.579 535.372 234.233 534.07 235.213C533.188 235.867 532.582 236.754 532.255 237.874C531.977 238.948 532.001 239.999 532.325 241.026C533.211 243.453 535.185 244.27 538.254 243.477C541.882 242.543 544.996 242.8 547.6 244.247C550.156 245.648 551.529 247.796 551.714 250.69C551.901 253.818 550.901 256.386 548.714 258.394C546.297 260.588 542.601 261.918 537.626 262.385C535.953 262.573 534.696 263.295 533.86 264.557C533.117 265.77 532.93 267.056 533.302 268.409C533.72 269.856 534.652 270.837 536.093 271.35ZM257.129 353.179C257.919 351.264 259.174 349.77 260.895 348.696C262.336 347.715 264.219 347.016 266.543 346.597C264.359 345.848 262.243 346.153 260.196 347.507C259.174 348.206 258.384 349.024 257.826 349.958C257.222 351.03 256.989 352.104 257.129 353.179ZM258.384 374.679C259.36 374.025 260.105 373.279 260.614 372.437C261.219 371.456 261.5 370.476 261.453 369.495C260.614 371.083 259.36 372.437 257.686 373.558C256.943 374.025 256.129 374.421 255.246 374.75C254.548 375.029 253.618 375.284 252.456 375.519C254.455 376.221 256.431 375.939 258.384 374.679ZM225.536 324.676C228.605 322.06 232.115 319.867 236.067 318.091C237.88 317.299 239.833 316.623 241.925 316.063C243.645 315.549 245.714 315.106 248.132 314.73C243.901 314.777 239.74 315.596 235.648 317.181C231.696 318.676 228.023 320.848 224.629 323.695C223.002 325.096 221.514 326.637 220.166 328.316C218.492 330.465 217.306 332.238 216.609 333.639C214.61 337.235 213.215 341.251 212.425 345.687L212.913 344.216L213.401 342.675C213.819 341.553 214.215 340.573 214.586 339.733C215.423 337.772 216.4 335.928 217.516 334.199C219.747 330.559 222.421 327.383 225.536 324.676ZM270.171 341.764C273.331 342.604 276.261 344.354 278.956 347.016C282.631 350.61 285.072 355.885 286.28 362.843C287.396 369.099 287.326 375.308 286.072 381.472C284.257 390.761 280.307 397.789 274.214 402.551C268.078 407.313 260.105 409.602 250.294 409.414C238.763 409.18 228.976 405.26 220.933 397.648C212.61 389.76 207.682 379.206 206.148 365.996C204.66 353.202 206.497 342.02 211.657 332.45C216.539 323.484 223.699 316.973 233.138 312.91C241.413 309.361 249.597 308.312 257.686 309.76C261.406 310.412 264.406 311.58 266.683 313.259C269.054 315.082 270.309 317.275 270.449 319.844C270.636 323.017 269.589 325.797 267.312 328.178C264.894 330.697 261.313 332.544 256.571 333.709C252.433 334.784 249.131 336.977 246.667 340.294C244.296 343.467 242.994 347.272 242.762 351.708C242.436 357.964 243.971 363.031 247.365 366.906C248.76 368.491 250.224 369.519 251.758 369.985C253.293 370.408 254.571 370.15 255.594 369.216C256.245 368.609 256.408 367.816 256.082 366.835C255.943 366.415 255.687 365.902 255.315 365.294L254.827 364.384L254.269 363.474C253.293 361.745 252.619 360.183 252.247 358.78C251.642 356.728 251.48 354.602 251.758 352.409C252.13 349.888 253.223 347.645 255.036 345.687C256.849 343.77 259.058 342.463 261.661 341.764C264.45 340.969 267.288 340.969 270.171 341.764ZM348.14 320.965C348.605 319.797 349.117 318.957 349.675 318.444C350 318.162 350.441 317.93 350.999 317.742L351.768 317.601L352.534 317.463C351.186 317.275 350.117 317.416 349.327 317.883C348.535 318.397 347.839 319.283 347.234 320.543C346.489 321.99 345.91 324.068 345.491 326.778C344.98 330.932 344.98 335.18 345.491 339.522L345.839 336.372L346.187 333.219C346.421 330.512 346.629 328.434 346.816 326.986C347.234 324.374 347.675 322.366 348.14 320.965ZM337.68 374.609C338.841 374.327 339.957 373.793 341.027 372.997C343.027 371.409 344.164 369.357 344.445 366.835L343.468 368.306C343.141 368.82 342.817 369.263 342.492 369.636C341.747 370.57 340.981 371.341 340.191 371.946C339.352 372.601 338.423 373.138 337.4 373.558C336.61 373.931 335.517 374.283 334.122 374.609C335.286 374.888 336.47 374.888 337.68 374.609ZM310.34 319.354C311.316 318.047 312.293 316.996 313.269 316.201C314.526 315.129 315.827 314.568 317.175 314.521C315.874 314.287 314.433 314.662 312.851 315.643C311.781 316.389 310.667 317.416 309.504 318.723C307.878 320.684 306.343 323.276 304.902 326.496C303.739 329.344 302.809 332.192 302.11 335.039C301.368 338.168 300.879 341.133 300.646 343.934L301.832 339.592C302.297 338.004 302.715 336.58 303.087 335.321C304.203 331.959 305.227 329.206 306.156 327.057C307.457 324.068 308.852 321.5 310.34 319.354ZM342.282 319.773C344.094 314.592 347.582 312.023 352.745 312.07C356.37 312.117 359.787 314.357 362.995 318.793C366.017 322.947 368.482 328.575 370.388 335.67C374.618 351.405 374.966 366.953 371.434 382.312C369.575 390.576 365.158 397.181 358.183 402.131C351.675 406.708 344.188 409.135 335.727 409.414C327.126 409.649 319.408 407.618 312.573 403.323C305.086 398.558 299.973 391.789 297.231 383.011C294.951 375.868 293.86 367.816 293.951 358.85C294.044 350.401 295.114 342.278 297.161 334.481C299.298 326.684 302.087 320.519 305.528 315.992C309.249 311.09 313.269 308.803 317.593 309.129C322.709 309.549 326.287 312 328.334 316.483C331.123 322.551 331.357 332.52 329.032 346.385C327.962 352.688 327.846 357.987 328.682 362.282C329.567 366.859 331.403 369.169 334.192 369.216C339.028 369.263 341.121 363.286 340.469 351.288C339.68 336.114 340.282 325.61 342.282 319.773ZM455.821 319.354C456.982 317.953 458.098 316.879 459.168 316.133C460.376 315.197 461.817 314.662 463.492 314.521C461.957 314.381 460.399 314.73 458.82 315.572C457.657 316.224 456.402 317.228 455.052 318.582C453.426 320.311 451.45 322.832 449.126 326.147L447.802 328.108L446.404 330.069C445.384 331.516 444.407 332.729 443.475 333.709C440.966 336.372 438.292 337.819 435.456 338.051C436.944 338.192 438.525 337.913 440.198 337.211C441.546 336.557 442.873 335.647 444.174 334.481C445.244 333.501 446.337 332.285 447.451 330.838L448.845 328.877L450.24 326.916C452.427 323.696 454.286 321.174 455.821 319.354ZM398.144 330.418C399.678 327.245 401.283 324.606 402.956 322.504C405.373 319.562 407.908 317.953 410.559 317.672C408.978 317.58 407.443 317.953 405.955 318.793C404.514 319.633 403.259 320.637 402.19 321.805C400.33 323.766 398.564 326.449 396.889 329.858C394.285 335.321 392.355 341.342 391.101 347.927L391.937 345.687L392.776 343.514C393.285 342.02 393.82 340.526 394.378 339.032C395.913 335.25 397.167 332.379 398.144 330.418ZM480.58 322.856C484.95 331.725 487.412 343.141 487.97 357.101C488.575 373.302 487.739 385.814 485.459 394.636C482.857 404.676 478.44 409.602 472.21 409.414C468.538 409.32 465.398 407.779 462.793 404.793C460.796 402.504 458.958 399.213 457.285 394.918C456.774 393.518 456.145 391.721 455.403 389.525L454.985 388.266L454.566 387.004C454.286 386.117 454.031 385.348 453.798 384.693C452.637 381.426 451.52 379.582 450.45 379.159C449.287 378.74 448.103 379.183 446.893 380.492C446.428 381.006 445.872 381.728 445.22 382.662L444.314 383.924L443.408 385.254C441.826 387.635 440.431 389.337 439.221 390.365C437.409 391.953 435.503 392.722 433.503 392.678C430.854 392.584 428.574 391.533 426.668 389.525C425.32 388.031 424.042 385.861 422.832 383.011L422.206 381.332L421.856 380.492L421.578 379.72C421.113 378.414 420.742 377.48 420.461 376.919C419.625 375.146 418.766 374.421 417.883 374.75C416.672 375.17 415.371 377.222 413.977 380.912C413.696 381.611 413.372 382.476 413 383.501L412.512 384.904L411.954 386.375C411.118 388.803 410.372 390.785 409.721 392.326C407.724 396.996 405.584 400.428 403.306 402.621C400.283 405.422 396.772 406.402 392.776 405.563C385.941 404.115 382.129 397.043 381.336 384.344C380.594 373.185 382.129 360.579 385.941 346.526C391.844 324.629 399.655 313.215 409.373 312.279C413 311.953 416.509 313.192 419.903 315.992C422.601 318.185 425.414 321.547 428.343 326.076C430.901 330.045 433.015 332.192 434.69 332.52C437.292 333.081 440.385 330.653 443.963 325.237C448.149 319.028 451.567 314.824 454.216 312.631C457.657 309.83 461.492 308.709 465.723 309.27C471.488 310.015 476.44 314.545 480.58 322.856Z" fill="#EF48B2"/>
</g>
<g filter="url(#filter13_d_1147_105)">
<path d="M569.721 156.341C570.37 156.473 571.009 156.409 571.632 156.151C572.232 155.926 572.741 155.549 573.156 155.021C573.579 154.521 573.857 153.958 573.992 153.334C573.611 153.885 573.226 154.349 572.842 154.726C572.351 155.151 571.871 155.449 571.406 155.621C570.333 156.062 569.217 156.014 568.058 155.476C568.505 155.937 569.058 156.225 569.721 156.341ZM569.318 149.542C568.91 149.952 568.664 150.486 568.575 151.146C568.477 151.822 568.57 152.42 568.853 152.94C569.118 153.449 569.489 153.733 569.965 153.794C570.461 153.866 570.902 153.692 571.294 153.27C571.702 152.86 571.954 152.317 572.053 151.641C572.138 150.981 572.042 150.392 571.759 149.872C571.494 149.363 571.12 149.064 570.637 148.976C570.159 148.915 569.721 149.104 569.318 149.542ZM579.137 128.702C579.745 128.68 580.251 128.699 580.653 128.758C581.175 128.825 581.661 128.965 582.108 129.178C581.388 128.575 580.399 128.27 579.145 128.261C578.194 128.242 577.15 128.393 576.013 128.714C575.039 128.977 574.065 129.364 573.094 129.875C572.315 130.249 571.434 130.788 570.453 131.491L571.85 130.867C572.416 130.619 572.899 130.422 573.296 130.278C574.436 129.809 575.397 129.476 576.179 129.277C577.231 128.971 578.218 128.779 579.137 128.702ZM578.062 142.922C577.833 143.754 578.054 144.592 578.729 145.436C581.072 148.44 582.144 151.635 581.947 155.022C581.742 158.132 580.55 160.849 578.371 163.172C576.174 165.484 573.52 166.831 570.411 167.214C567.02 167.648 563.722 166.769 560.52 164.579C557.152 162.272 555.025 159.42 554.142 156.022C553.365 152.971 553.622 149.662 554.91 146.094C556.089 142.823 558.006 139.669 560.655 136.632C563.226 133.712 566.093 131.323 569.261 129.466C572.325 127.687 575.101 126.624 577.589 126.279C579.791 125.957 581.599 126.203 583.011 127.018C584.326 127.762 585.133 128.861 585.434 130.314C585.733 131.739 585.486 133.217 584.694 134.75C584.128 135.817 583.302 136.917 582.222 138.048C581.89 138.386 581.43 138.834 580.843 139.393L580.233 140.008C579.996 140.24 579.794 140.445 579.62 140.622C578.758 141.509 578.238 142.276 578.062 142.922ZM595.9 141.693C596.3 141.401 596.728 141.229 597.185 141.176C598.094 141.042 599.05 141.251 600.052 141.803C599.156 141.027 598.188 140.66 597.144 140.701C596.637 140.719 596.115 140.9 595.58 141.245C595.194 141.52 594.799 141.891 594.401 142.357C593.846 143.086 593.358 144.023 592.934 145.167C592.62 146.014 592.337 147.009 592.09 148.151L592.734 146.74L593.337 145.336C593.89 144.184 594.396 143.309 594.859 142.714C595.194 142.303 595.542 141.962 595.9 141.693ZM604.363 143.663C604.973 145.207 605.168 146.884 604.953 148.693C604.644 151.383 603.304 154.617 600.933 158.394C598.686 161.988 596.001 165.324 592.877 168.402C589.631 171.62 586.637 173.819 583.887 175.001C580.804 176.345 578.501 176.173 576.976 174.487C576.195 173.617 575.938 172.668 576.205 171.639C576.436 170.808 577.122 169.623 578.262 168.087C578.469 167.786 578.755 167.413 579.111 166.968L579.571 166.359L580.048 165.724C580.892 164.651 581.607 163.71 582.191 162.903C584.027 160.363 585.645 157.782 587.042 155.16C587.621 154.076 588.213 152.615 588.818 150.78L589.182 149.617L589.558 148.43C589.854 147.469 590.111 146.706 590.332 146.14C591.592 142.503 593.168 140.179 595.056 139.166C596.069 138.633 597.198 138.467 598.445 138.667C599.689 138.868 600.831 139.394 601.873 140.246C602.982 141.145 603.81 142.284 604.363 143.663Z" fill="#EF75BE"/>
</g>
</g>
</g>
<defs>
<filter id="filter0_d_1147_105" x="64.811" y="151.331" width="42.8916" height="41.8745" filterUnits="userSpaceOnUse" color-interpolation-filters="sRGB">
<feFlood flood-opacity="0" result="BackgroundImageFix"/>
<feColorMatrix in="SourceAlpha" type="matrix" values="0 0 0 0 0 0 0 0 0 0 0 0 0 0 0 0 0 0 127 0" result="hardAlpha"/>
<feOffset dx="3" dy="4"/>
<feComposite in2="hardAlpha" operator="out"/>
<feColorMatrix type="matrix" values="0 0 0 0 0.430556 0 0 0 0 0.0586034 0 0 0 0 0.0586034 0 0 0 0.5 0"/>
<feBlend mode="normal" in2="BackgroundImageFix" result="effect1_dropShadow_1147_105"/>
<feBlend mode="normal" in="SourceGraphic" in2="effect1_dropShadow_1147_105" result="shape"/>
</filter>
<filter id="filter1_d_1147_105" x="95.7871" y="124.551" width="40.0859" height="46.8621" filterUnits="userSpaceOnUse" color-interpolation-filters="sRGB">
<feFlood flood-opacity="0" result="BackgroundImageFix"/>
<feColorMatrix in="SourceAlpha" type="matrix" values="0 0 0 0 0 0 0 0 0 0 0 0 0 0 0 0 0 0 127 0" result="hardAlpha"/>
<feOffset dx="3" dy="4"/>
<feComposite in2="hardAlpha" operator="out"/>
<feColorMatrix type="matrix" values="0 0 0 0 0.430556 0 0 0 0 0.0586034 0 0 0 0 0.0586034 0 0 0 0.5 0"/>
<feBlend mode="normal" in2="BackgroundImageFix" result="effect1_dropShadow_1147_105"/>
<feBlend mode="normal" in="SourceGraphic" in2="effect1_dropShadow_1147_105" result="shape"/>
</filter>
<filter id="filter2_d_1147_105" x="126.906" y="106.145" width="42.0371" height="47.0627" filterUnits="userSpaceOnUse" color-interpolation-filters="sRGB">
<feFlood flood-opacity="0" result="BackgroundImageFix"/>
<feColorMatrix in="SourceAlpha" type="matrix" values="0 0 0 0 0 0 0 0 0 0 0 0 0 0 0 0 0 0 127 0" result="hardAlpha"/>
<feOffset dx="3" dy="4"/>
<feComposite in2="hardAlpha" operator="out"/>
<feColorMatrix type="matrix" values="0 0 0 0 0.430556 0 0 0 0 0.0586034 0 0 0 0 0.0586034 0 0 0 0.5 0"/>
<feBlend mode="normal" in2="BackgroundImageFix" result="effect1_dropShadow_1147_105"/>
<feBlend mode="normal" in="SourceGraphic" in2="effect1_dropShadow_1147_105" result="shape"/>
</filter>
<filter id="filter3_d_1147_105" x="167.739" y="89.106" width="49.1255" height="49.2935" filterUnits="userSpaceOnUse" color-interpolation-filters="sRGB">
<feFlood flood-opacity="0" result="BackgroundImageFix"/>
<feColorMatrix in="SourceAlpha" type="matrix" values="0 0 0 0 0 0 0 0 0 0 0 0 0 0 0 0 0 0 127 0" result="hardAlpha"/>
<feOffset dx="3" dy="4"/>
<feComposite in2="hardAlpha" operator="out"/>
<feColorMatrix type="matrix" values="0 0 0 0 0.430556 0 0 0 0 0.0586034 0 0 0 0 0.0586034 0 0 0 0.5 0"/>
<feBlend mode="normal" in2="BackgroundImageFix" result="effect1_dropShadow_1147_105"/>
<feBlend mode="normal" in="SourceGraphic" in2="effect1_dropShadow_1147_105" result="shape"/>
</filter>
<filter id="filter4_d_1147_105" x="208.973" y="72.5952" width="38.1489" height="51.9651" filterUnits="userSpaceOnUse" color-interpolation-filters="sRGB">
<feFlood flood-opacity="0" result="BackgroundImageFix"/>
<feColorMatrix in="SourceAlpha" type="matrix" values="0 0 0 0 0 0 0 0 0 0 0 0 0 0 0 0 0 0 127 0" result="hardAlpha"/>
<feOffset dx="3" dy="4"/>
<feComposite in2="hardAlpha" operator="out"/>
<feColorMatrix type="matrix" values="0 0 0 0 0.430556 0 0 0 0 0.0586034 0 0 0 0 0.0586034 0 0 0 0.5 0"/>
<feBlend mode="normal" in2="BackgroundImageFix" result="effect1_dropShadow_1147_105"/>
<feBlend mode="normal" in="SourceGraphic" in2="effect1_dropShadow_1147_105" result="shape"/>
</filter>
<filter id="filter5_d_1147_105" x="247.776" y="64.387" width="50.6343" height="50.365" filterUnits="userSpaceOnUse" color-interpolation-filters="sRGB">
<feFlood flood-opacity="0" result="BackgroundImageFix"/>
<feColorMatrix in="SourceAlpha" type="matrix" values="0 0 0 0 0 0 0 0 0 0 0 0 0 0 0 0 0 0 127 0" result="hardAlpha"/>
<feOffset dx="3" dy="4"/>
<feComposite in2="hardAlpha" operator="out"/>
<feColorMatrix type="matrix" values="0 0 0 0 0.430556 0 0 0 0 0.0586034 0 0 0 0 0.0586034 0 0 0 0.5 0"/>
<feBlend mode="normal" in2="BackgroundImageFix" result="effect1_dropShadow_1147_105"/>
<feBlend mode="normal" in="SourceGraphic" in2="effect1_dropShadow_1147_105" result="shape"/>
</filter>
<filter id="filter6_d_1147_105" x="301.196" y="61.7654" width="39.8037" height="47.3113" filterUnits="userSpaceOnUse" color-interpolation-filters="sRGB">
<feFlood flood-opacity="0" result="BackgroundImageFix"/>
<feColorMatrix in="SourceAlpha" type="matrix" values="0 0 0 0 0 0 0 0 0 0 0 0 0 0 0 0 0 0 127 0" result="hardAlpha"/>
<feOffset dx="3" dy="4"/>
<feComposite in2="hardAlpha" operator="out"/>
<feColorMatrix type="matrix" values="0 0 0 0 0.430556 0 0 0 0 0.0586034 0 0 0 0 0.0586034 0 0 0 0.5 0"/>
<feBlend mode="normal" in2="BackgroundImageFix" result="effect1_dropShadow_1147_105"/>
<feBlend mode="normal" in="SourceGraphic" in2="effect1_dropShadow_1147_105" result="shape"/>
</filter>
<filter id="filter7_d_1147_105" x="344.932" y="61.2656" width="49.1348" height="47.8486" filterUnits="userSpaceOnUse" color-interpolation-filters="sRGB">
<feFlood flood-opacity="0" result="BackgroundImageFix"/>
<feColorMatrix in="SourceAlpha" type="matrix" values="0 0 0 0 0 0 0 0 0 0 0 0 0 0 0 0 0 0 127 0" result="hardAlpha"/>
<feOffset dx="3" dy="4"/>
<feComposite in2="hardAlpha" operator="out"/>
<feColorMatrix type="matrix" values="0 0 0 0 0.430556 0 0 0 0 0.0586034 0 0 0 0 0.0586034 0 0 0 0.5 0"/>
<feBlend mode="normal" in2="BackgroundImageFix" result="effect1_dropShadow_1147_105"/>
<feBlend mode="normal" in="SourceGraphic" in2="effect1_dropShadow_1147_105" result="shape"/>
</filter>
<filter id="filter8_d_1147_105" x="392.793" y="65.3574" width="32.1909" height="47.5696" filterUnits="userSpaceOnUse" color-interpolation-filters="sRGB">
<feFlood flood-opacity="0" result="BackgroundImageFix"/>
<feColorMatrix in="SourceAlpha" type="matrix" values="0 0 0 0 0 0 0 0 0 0 0 0 0 0 0 0 0 0 127 0" result="hardAlpha"/>
<feOffset dx="3" dy="4"/>
<feComposite in2="hardAlpha" operator="out"/>
<feColorMatrix type="matrix" values="0 0 0 0 0.430556 0 0 0 0 0.0586034 0 0 0 0 0.0586034 0 0 0 0.5 0"/>
<feBlend mode="normal" in2="BackgroundImageFix" result="effect1_dropShadow_1147_105"/>
<feBlend mode="normal" in="SourceGraphic" in2="effect1_dropShadow_1147_105" result="shape"/>
</filter>
<filter id="filter9_d_1147_105" x="442.438" y="74.968" width="52.9561" height="51.1353" filterUnits="userSpaceOnUse" color-interpolation-filters="sRGB">
<feFlood flood-opacity="0" result="BackgroundImageFix"/>
<feColorMatrix in="SourceAlpha" type="matrix" values="0 0 0 0 0 0 0 0 0 0 0 0 0 0 0 0 0 0 127 0" result="hardAlpha"/>
<feOffset dx="3" dy="4"/>
<feComposite in2="hardAlpha" operator="out"/>
<feColorMatrix type="matrix" values="0 0 0 0 0.430556 0 0 0 0 0.0586034 0 0 0 0 0.0586034 0 0 0 0.5 0"/>
<feBlend mode="normal" in2="BackgroundImageFix" result="effect1_dropShadow_1147_105"/>
<feBlend mode="normal" in="SourceGraphic" in2="effect1_dropShadow_1147_105" result="shape"/>
</filter>
<filter id="filter10_d_1147_105" x="485.674" y="93.8281" width="41.7734" height="48.1948" filterUnits="userSpaceOnUse" color-interpolation-filters="sRGB">
<feFlood flood-opacity="0" result="BackgroundImageFix"/>
<feColorMatrix in="SourceAlpha" type="matrix" values="0 0 0 0 0 0 0 0 0 0 0 0 0 0 0 0 0 0 127 0" result="hardAlpha"/>
<feOffset dx="3" dy="4"/>
<feComposite in2="hardAlpha" operator="out"/>
<feColorMatrix type="matrix" values="0 0 0 0 0.430556 0 0 0 0 0.0586034 0 0 0 0 0.0586034 0 0 0 0.5 0"/>
<feBlend mode="normal" in2="BackgroundImageFix" result="effect1_dropShadow_1147_105"/>
<feBlend mode="normal" in="SourceGraphic" in2="effect1_dropShadow_1147_105" result="shape"/>
</filter>
<filter id="filter11_d_1147_105" x="525.497" y="107.35" width="37.6572" height="44.3638" filterUnits="userSpaceOnUse" color-interpolation-filters="sRGB">
<feFlood flood-opacity="0" result="BackgroundImageFix"/>
<feColorMatrix in="SourceAlpha" type="matrix" values="0 0 0 0 0 0 0 0 0 0 0 0 0 0 0 0 0 0 127 0" result="hardAlpha"/>
<feOffset dx="3" dy="4"/>
<feComposite in2="hardAlpha" operator="out"/>
<feColorMatrix type="matrix" values="0 0 0 0 0.430556 0 0 0 0 0.0586034 0 0 0 0 0.0586034 0 0 0 0.5 0"/>
<feBlend mode="normal" in2="BackgroundImageFix" result="effect1_dropShadow_1147_105"/>
<feBlend mode="normal" in="SourceGraphic" in2="effect1_dropShadow_1147_105" result="shape"/>
</filter>
<filter id="filter12_d_1147_105" x="99.2544" y="204.557" width="470.803" height="208.876" filterUnits="userSpaceOnUse" color-interpolation-filters="sRGB">
<feFlood flood-opacity="0" result="BackgroundImageFix"/>
<feColorMatrix in="SourceAlpha" type="matrix" values="0 0 0 0 0 0 0 0 0 0 0 0 0 0 0 0 0 0 127 0" result="hardAlpha"/>
<feOffset dx="3" dy="4"/>
<feComposite in2="hardAlpha" operator="out"/>
<feColorMatrix type="matrix" values="0 0 0 0 0.430556 0 0 0 0 0.0586034 0 0 0 0 0.0586034 0 0 0 0.5 0"/>
<feBlend mode="normal" in2="BackgroundImageFix" result="effect1_dropShadow_1147_105"/>
<feBlend mode="normal" in="SourceGraphic" in2="effect1_dropShadow_1147_105" result="shape"/>
</filter>
<filter id="filter13_d_1147_105" x="553.704" y="126.142" width="54.3335" height="53.7524" filterUnits="userSpaceOnUse" color-interpolation-filters="sRGB">
<feFlood flood-opacity="0" result="BackgroundImageFix"/>
<feColorMatrix in="SourceAlpha" type="matrix" values="0 0 0 0 0 0 0 0 0 0 0 0 0 0 0 0 0 0 127 0" result="hardAlpha"/>
<feOffset dx="3" dy="4"/>
<feComposite in2="hardAlpha" operator="out"/>
<feColorMatrix type="matrix" values="0 0 0 0 0.430556 0 0 0 0 0.0586034 0 0 0 0 0.0586034 0 0 0 0.5 0"/>
<feBlend mode="normal" in2="BackgroundImageFix" result="effect1_dropShadow_1147_105"/>
<feBlend mode="normal" in="SourceGraphic" in2="effect1_dropShadow_1147_105" result="shape"/>
</filter>
<clipPath id="clip0_1147_105">
<rect width="670" height="472" fill="white"/>
</clipPath>
</defs>
</svg>
